<?xml version="1.0" encoding="UTF-8" standalone="no"?>
<!-- Created with Inkscape (http://www.inkscape.org/) -->

<svg
   width="176.60001"
   height="250"
   viewBox="0 0 46.725418 66.145834"
   version="1.1"
   id="svg1"
   xml:space="preserve"
   xmlns="http://www.w3.org/2000/svg"
   xmlns:svg="http://www.w3.org/2000/svg"
   xmlns:rdf="http://www.w3.org/1999/02/22-rdf-syntax-ns#"
   xmlns:cc="http://creativecommons.org/ns#"
   xmlns:dc="http://purl.org/dc/elements/1.1/"><title
     id="title5">University of Chittagong (CU) - চট্টগ্রাম বিশ্ববিদ্যালয় (চবি)</title><defs
     id="defs1" /><g
     id="layer1"
     transform="translate(-95.189075,-218.52039)"><path
       id="path3"
       style="font-weight:bold;font-size:49.9405px;line-height:1.25;font-family:'Ruposhi Bangla Pr UNI';-inkscape-font-specification:'Ruposhi Bangla Pr UNI Bold';fill:#ffffff;stroke-width:0.197689"
       d="m 124.07903,287.96146 c -0.81914,0 -1.61316,0.63508 -1.61316,1.22565 0.014,0.31746 0.26808,0.52529 0.4745,0.73543 h -1.02951 c -0.20463,0 -0.31488,-0.18267 -0.33065,-0.54552 l -0.27673,-0.25308 v 1.20984 c 0,0.21608 0.0237,0.3848 0.10277,0.68004 -0.0695,-0.15677 -0.44527,-1.07541 -1.09914,-1.07541 -0.23723,0 -0.52455,0.23726 -0.86193,0.71171 -0.19811,-0.46825 -0.41209,-0.7275 -1.04375,-0.7275 h -4.278 c -0.14233,-0.0685 -0.21348,-0.17399 -0.21348,-0.31633 0,-0.49784 0.66451,-1.107 1.38381,-1.107 0.72749,0 1.43917,0.35847 2.13503,1.07541 v -0.26887 c -0.53134,-0.69624 -1.5799,-1.34428 -2.5304,-1.34428 -0.81914,0 -1.61316,0.63508 -1.61316,1.22563 0.014,0.31747 0.26807,0.5253 0.47449,0.73544 h -1.10707 l 0.44283,0.49029 h 0.60885 v 3.47931 l 0.49029,0.55346 v -4.03277 h 2.91784 v 0.26093 c -0.40592,0.0369 -1.11494,0.42703 -2.1271,1.17033 l 0.59306,0.74329 c 0.87384,0 1.59755,0.76983 1.83458,1.50245 l 0.21348,0.17396 v -3.85096 h 0.86978 c 0.36902,0 0.59311,0.14496 0.67219,0.43489 -0.50081,0.3163 -0.75123,0.61679 -0.75123,0.90146 0,0.3931 0.28721,0.60099 0.64052,0.60099 0.29521,0 0.51923,-0.19768 0.60885,-0.59306 0.10658,0.39767 0.26208,0.56064 0.59306,0.58513 0.46965,0 0.64052,-0.30186 0.64052,-0.59306 0,-0.26358 -0.21877,-0.53774 -0.65631,-0.82242 0.13179,-0.19505 0.26358,-0.29251 0.39537,-0.29251 0.1353,0 0.35745,0.21694 0.66425,0.64566 v 0.89909 c -1.0313,0.35228 -1.76675,0.87036 -1.81085,0.91446 l 0.56933,0.7275 c 0.64291,0 1.39843,0.46411 1.51039,0.95677 l 0.253,0.21355 v -4.64964 c 0.0369,0.0475 0.10813,0.0712 0.21356,0.0712 l 0.84606,-8e-5 v 3.47931 l 0.49029,0.55354 v -4.03285 h 2.91784 v 0.26093 c -0.40592,0.0369 -1.11494,0.42703 -2.1271,1.17033 l 0.59306,0.74329 c 0.87384,0 1.59755,0.76983 1.83458,1.50245 l 0.21348,0.17396 v -3.85096 l 1.05961,8e-5 v 2.30899 c 0.15288,0.26885 0.37164,0.48761 0.65631,0.65631 0.19506,-0.63787 0.56668,-1.17561 1.11494,-1.61316 -0.33586,0.74466 -0.0826,1.60465 0.14237,2.34851 l 0.32419,0.26887 c -0.24766,-1.03411 -0.30714,-2.19576 0.52981,-2.98903 -0.28995,-0.27412 -0.56935,-0.48238 -0.83821,-0.62472 -0.74144,0.4634 -1.30039,1.13687 -1.40753,1.34428 v -1.70005 h 3.54256 c -0.64567,0.29426 -0.73697,0.7677 -0.70376,1.19397 0.0209,0.26888 0.13956,1.28606 0.20562,1.75553 0.038,0.27037 0.0296,0.92519 -0.9647,0.92519 l 0.22927,0.20554 c 0.21966,0 0.96235,-0.0567 1.26524,-0.80654 0.28029,-0.69392 -0.15023,-1.94218 -0.15023,-2.5462 0,-0.42588 0.18176,-0.7329 0.59871,-0.72405 0.42978,0.009 0.61899,0.70198 0.61899,1.07197 v 2.45128 l 0.42704,0.49823 0.008,-4.16729 c 0.0685,0.0949 0.17132,0.14237 0.30839,0.14237 h 3.62169 l 0.008,0.81447 c 0.001,0.13179 0.008,0.23718 0.0237,0.31625 -0.0838,-0.20275 -0.31315,-0.73535 -0.77487,-0.73535 -0.27386,0 -0.39355,0.15022 -0.52981,0.52981 -0.20033,-0.36374 -0.46132,-0.54568 -0.7829,-0.54568 -0.60463,0 -1.0912,0.51789 -1.0912,1.08334 0,0.70185 0.48402,1.25731 1.19406,1.25731 1.0363,0 0.8717,-1.20191 0.19768,-1.20191 -0.46376,0 -0.69007,0.50533 -0.33212,0.81448 -0.77659,0.0639 -0.76166,-1.27318 0.29252,-1.27318 0.37429,0 0.63003,0.18193 0.7671,0.54568 l 0.22142,0.13444 c -0.0395,-0.26888 -0.0863,-0.71964 0.30839,-0.71964 0.15815,0 0.32151,0.16611 0.49021,0.49822 l -0.0158,1.88195 0.46656,0.49814 v -3.89833 h 0.56933 c 0,0.26358 0.22667,0.39537 0.68004,0.39537 0.22141,0 0.42434,0.087 0.60885,0.26094 -0.37794,0.2992 -0.64443,0.5219 -1.05954,0.91724 l 0.62465,0.76702 c 0.89693,0 1.72077,0.60785 1.85036,1.32056 l 0.22142,0.18983 v -3.85096 h 0.52981 l -0.44283,-0.49029 h -7.88382 c -0.12652,0 -0.20291,-0.18719 -0.22927,-0.56147 l -0.24514,-0.22142 0.008,0.96479 c 0.002,0.24249 0.0342,0.51923 0.10277,0.83026 -0.1794,-0.43785 -0.40297,-1.01216 -0.9647,-1.01216 l -8.90391,-8e-5 c -0.14234,-0.0685 -0.21348,-0.174 -0.21348,-0.31633 0,-0.49784 0.66451,-1.107 1.38381,-1.107 0.72749,0 1.43917,0.35847 2.13503,1.07541 v -0.26887 c -0.53134,-0.69624 -1.5799,-1.34429 -2.53041,-1.34429 z m -24.900814,0.095 c -0.121249,0.13705 -0.181813,0.30042 -0.181813,0.4902 0,1.5824 2.444527,0.51451 2.522467,1.13874 0,0.0896 -0.0396,0.16868 -0.11864,0.23721 h -6.159952 l 0.442831,0.49029 h 0.608851 v 2.55413 c 0,0.40067 0.3792,1.00423 0.767099,1.00423 0.636903,0 1.644742,-1.09964 1.644742,-1.95314 0,-0.55057 -0.67601,-0.80562 -0.86987,-0.82241 -0.247995,-0.0215 -0.873274,-0.13714 -1.020016,-0.78281 h 2.846653 v 1.99265 c 0,0.31459 0.437412,1.05962 0.822412,1.05962 0.25831,0 0.53247,-0.12912 0.82241,-0.38743 0.61457,0.11626 0.21361,0.8382 -0.67218,0.8382 -0.74858,0 -1.220339,-0.44551 -1.415391,-1.33643 l -0.221416,-0.15022 c 0.12355,1.4826 0.981325,2.12709 1.834497,2.12709 1.29143,0 1.23172,-1.45856 0.75122,-1.80291 0.27413,-0.3532 0.41117,-0.71691 0.41117,-1.0912 0,-1.11935 -1.33635,-1.04668 -1.33635,-0.2926 0,0.51098 0.45642,0.61018 0.62473,0.51401 -0.053,0.59225 -0.68123,1.0201 -0.96471,1.0201 -0.0896,0 -0.13444,-0.0686 -0.13444,-0.20562 v -2.28526 h 2.22987 l -0.44275,-0.49029 h -0.14237 c -0.10596,-1.14885 -0.98586,-1.06743 -1.8741,-1.03589 -1.021367,0.0187 -0.712439,-0.65031 -0.598051,-0.74836 z m 7.678274,1.08326 0.008,0.96479 c 0.002,0.24249 0.0343,0.51923 0.10285,0.83026 -0.17941,-0.43785 -0.40306,-1.01216 -0.96479,-1.01216 h -0.15808 c -0.18978,0 -0.29791,-0.17927 -0.32427,-0.53775 l -0.26879,-0.24506 v 0.96471 c 0.004,0.33476 0.0116,0.68297 0.14229,0.99636 -0.41576,-0.77983 -1.01395,-1.24151 -1.60522,-1.24151 -0.58748,0 -1.11493,0.44452 -1.11493,1.20985 0,0.19505 0.0342,0.36108 0.10277,0.49814 0.0738,0.13706 0.16602,0.20562 0.27673,0.20562 0.20944,0 0.63607,-0.43489 0.8382,-0.43489 0.0791,0 0.11865,0.05 0.11865,0.15023 0,0.19077 -0.34605,0.61554 -0.86979,0.97264 l 0.75114,0.38744 c 0.5752,-0.49908 0.68516,-1.25404 0.37647,-1.64139 -0.27048,-0.33941 -0.72624,-0.25929 -0.85088,-0.20104 0,-0.89735 1.83457,-0.68321 1.83457,0.69583 v 1.48666 c 0,0.11014 0.0294,0.31855 0.0632,0.45862 -0.48287,-0.76643 -1.67095,-0.25934 -2.18249,-0.62473 -0.34285,-0.26666 -0.1829,-0.71921 -0.15816,-0.7828 l -0.18975,-0.16611 c -0.37836,0.82397 0.0671,1.75545 0.98843,1.75545 0.81155,-0.0202 1.21718,-0.26011 1.70799,0.50608 l 0.28467,0.25309 v -4.24634 c 0.0474,0.0475 0.11867,0.0712 0.21356,0.0712 h 0.17395 c 0.46423,0 0.6721,0.69037 0.6721,1.07541 v 2.45128 l 0.42704,0.49823 0.008,-4.16729 c 0.0685,0.0949 0.17133,0.14237 0.3084,0.14237 h 0.13697 c 0.18133,0.62941 0.95227,0.40232 1.44452,0.88558 0.25751,0.2528 0.23859,0.51188 0.12658,0.62472 -0.3831,-0.25663 -1.05962,-0.0736 -1.05962,0.59307 0,0.76254 1.01751,1.06179 1.47078,0.2926 0.485,0.15287 0.82239,0.56932 1.01217,1.24937 l 0.20562,0.20562 v -3.85096 h 0.52981 l -0.44283,-0.49029 h -3.66121 c -0.12652,0 -0.203,-0.18719 -0.22935,-0.56147 z m 1.91361,1.27318 h 1.60522 v 2.64177 c -0.14838,-0.25413 -0.30723,-0.51041 -0.52195,-0.71236 0.21273,-0.90414 -0.83649,-1.43586 -1.08327,-1.92941 z m 30.67324,0 h 1.36008 v 2.76049 c -0.48593,-0.62985 -0.97268,-0.93385 -1.20191,-0.93385 0.26126,-0.26126 0.52329,-0.47538 0.84606,-0.71964 -0.21614,-0.30049 -0.55086,-0.66945 -1.00423,-1.107 z m -42.629425,0.45068 c 0.284135,0.95816 1.163422,0.96357 1.170327,1.2731 0.0045,0.20292 -0.623154,1.29683 -1.083349,1.29683 -0.05799,0 -0.08698,-0.0395 -0.08698,-0.11856 z m 29.479185,0.59298 v 1.70014 c -0.43443,-0.7168 -0.68347,-0.99363 -1.15445,-1.08335 0.71136,-0.46029 0.95104,-0.57441 1.15445,-0.61679 z m -9.18064,8e-5 v 1.70014 c -0.43443,-0.7168 -0.68347,-0.99363 -1.15445,-1.08335 0.71136,-0.46029 0.95105,-0.57441 1.15445,-0.61679 z m 4.19102,1.42865 v 1.21271 c -0.28036,-0.38137 -0.5989,-0.62774 -0.95677,-0.7356 0.25119,-0.16404 0.57098,-0.32304 0.95677,-0.47711 z m 18.54317,0.57988 c -0.23366,-3e-5 -0.4231,0.18938 -0.42311,0.42304 1e-5,0.23365 0.18945,0.42306 0.42311,0.42302 0.23363,-1e-5 0.42302,-0.1894 0.42303,-0.42302 -1e-5,-0.23363 -0.1894,-0.42302 -0.42303,-0.42304 z" /><g
       id="g5"
       transform="matrix(0.23237602,0,0,0.23237602,85.375079,218.19601)"><path
         id="path4"
         style="color:#000000;fill:#ffffff;fill-opacity:1;fill-rule:evenodd;-inkscape-stroke:none"
         d="m 125.58975,7.4005819 c -0.0507,0.9696404 -0.0965,1.9439001 -0.15451,2.9057661 -0.1031,1.709669 -0.21658,3.405169 -0.34365,5.085994 -0.12737,1.684716 -0.26844,3.35282 -0.42168,5.003829 -0.15339,1.652878 -0.32177,3.293146 -0.50385,4.918046 -0.18185,1.622823 -0.37754,3.231175 -0.59014,4.824512 -0.21248,1.591254 -0.43979,3.168915 -0.68523,4.728393 v 0.0021 c -0.24567,1.560782 -0.50924,3.103007 -0.7891,4.625041 -0.28002,1.522908 -0.57886,3.02944 -0.89659,4.519621 -0.31731,1.488209 -0.65329,2.959386 -1.00975,4.410067 -0.35645,1.450682 -0.73375,2.882002 -1.1312,4.292761 -0.39738,1.410589 -0.81532,2.801851 -1.25574,4.171838 -0.44064,1.370128 -0.90302,2.718131 -1.38854,4.045231 -0.4864,1.329495 -0.99568,2.635982 -1.52756,3.917591 -0.53098,1.279383 -1.08599,2.540755 -1.66966,3.783231 -0.58301,1.241094 -1.19144,2.456671 -1.82211,3.644739 v 0.0021 c -0.63289,1.192428 -1.29172,2.358802 -1.97663,3.501595 -0.68549,1.143748 -1.39979,2.265678 -2.14095,3.361552 -0.73949,1.093421 -1.50669,2.163546 -2.30632,3.211174 -0.35757,0.46849 -0.72002,0.930296 -1.08624,1.384411 -3.80627,4.719843 -8.063737,7.807898 -12.658143,8.992216 -4.594406,1.184318 -9.484304,0.1277 -12.972334,-2.683557 -6.976062,-5.622514 -8.626047,-16.291234 -4.615223,-27.76368 1.216267,-3.478975 2.484557,-6.962328 3.808553,-10.468612 1.626381,-4.307113 3.341633,-8.65261 5.148007,-13.033313 0.676227,-1.639955 1.424065,-3.302519 2.127002,-4.951119 h -6.714836 c -0.374435,0.863764 -0.777936,1.776978 -1.117244,2.599842 -1.829255,4.436225 -3.565798,8.838241 -5.214669,13.204879 -1.648717,4.366264 -3.208953,8.695975 -4.677751,12.98422 -1.468668,4.287932 -2.846708,8.536501 -4.138765,12.745992 -1.29187,4.20887 -2.495136,8.376201 -3.611149,12.498462 -1.116429,4.123816 -2.147355,8.202204 -3.089734,12.234396 -0.942574,4.03309 -1.797429,8.02168 -2.568319,11.96051 -0.77067,3.93777 -1.455529,7.82867 -2.056722,11.67009 -0.600947,3.83976 -1.117792,7.62978 -1.55081,11.36727 -0.433015,3.73773 -0.782416,7.42152 -1.049031,11.05049 -0.266736,3.63078 -0.452454,7.2066 -0.554488,10.72285 -0.10208,3.51735 -0.121312,6.97796 -0.06046,10.37922 0.06082,3.39921 0.203484,6.74097 0.425814,10.02316 0.22218,3.28003 0.523816,6.49898 0.905888,9.65419 0.382074,3.15536 0.844543,6.24724 1.384928,9.27178 0.540558,3.02573 1.159866,5.98282 1.857251,8.87285 0.697941,2.89226 1.473713,5.71734 2.326473,8.46666 0.853103,2.75058 1.782849,5.43152 2.791044,8.03931 1.007476,2.60593 2.093767,5.13655 3.255615,7.5954 1.161532,2.45808 2.397953,4.84067 3.710885,7.14271 1.313045,2.30226 2.73012,4.56692 3.779614,6.10351 1.131731,1.657 1.867191,2.68447 2.638599,3.71708 0.769168,1.02961 1.558721,2.03727 2.36523,3.02514 0.808205,0.98996 1.631478,1.9579 2.472718,2.9006 0.842996,0.94467 1.706231,1.86827 2.585735,2.77029 0.879503,0.90202 1.777021,1.77868 2.693529,2.6361 0.914154,0.85523 1.848714,1.69037 2.802413,2.50372 0.951165,0.81117 1.920509,1.59903 2.908349,2.36523 0.987695,0.7661 1.994002,1.50957 3.015837,2.22829 1.02465,0.72068 2.062575,1.41816 3.117122,2.08824 1.054529,0.67007 2.129136,1.31675 3.223594,1.94151 1.094459,0.62477 2.200784,1.22334 3.323294,1.79677 1.124164,0.57428 2.265194,1.12479 3.423564,1.65003 1.15615,0.52409 2.33102,1.02233 3.52381,1.4981 1.1939,0.47621 2.39774,0.92706 3.62013,1.35064 1.22238,0.42359 2.4624,0.82394 3.71586,1.19649 1.25118,0.3719 2.5218,0.71684 3.81062,1.03869 1.28867,0.32177 2.58869,0.61871 3.90386,0.88694 1.31517,0.26823 2.64406,0.5103 3.9923,0.7264 1.34753,0.216 2.7102,0.40596 4.08605,0.56844 1.37626,0.16252 2.76936,0.29733 4.17598,0.40618 1.40748,0.10894 2.82757,0.1919 4.26175,0.2465 1.43387,0.0545 2.88394,0.0816 4.34961,0.0816 1.46568,0 2.91582,-0.0271 4.3496,-0.0816 1.43429,-0.0546 2.85433,-0.13756 4.26213,-0.24646 1.40781,-0.10889 2.79894,-0.2437 4.17508,-0.40622 1.37589,-0.16248 2.73866,-0.35245 4.08606,-0.56844 1.34822,-0.2161 2.67905,-0.45815 3.99407,-0.72657 1.3134,-0.26806 2.61393,-0.565 3.9026,-0.88677 1.28882,-0.32183 2.55941,-0.66678 3.81062,-1.03869 1.25346,-0.37255 2.49296,-0.7729 3.71534,-1.19649 1.22239,-0.42358 2.42674,-0.87443 3.62065,-1.35064 1.1928,-0.47577 2.36715,-0.97401 3.5233,-1.4981 1.15839,-0.52526 2.29942,-1.07576 3.42356,-1.65003 1.12248,-0.5734 2.23086,-1.17198 3.32435,-1.79679 1.0934,-0.62473 2.16797,-1.2714 3.22254,-1.94149 1.05453,-0.67006 2.09243,-1.36754 3.11712,-2.08824 1.02183,-0.71871 2.02813,-1.46218 3.01584,-2.22829 0.9878,-0.76616 1.95867,-1.55401 2.9099,-2.36523 0.95367,-0.81332 1.88666,-1.64846 2.80086,-2.50372 0.9165,-0.8574 1.814,-1.73406 2.6935,-2.63607 0.87951,-0.902 1.74273,-1.82561 2.58577,-2.77032 0.84121,-0.94265 1.66653,-1.9106 2.47478,-2.9006 0.80649,-0.98784 1.59398,-1.9955 2.36316,-3.02514 0.77148,-1.03269 1.50702,-2.0602 2.6386,-3.71708 1.04947,-1.53654 2.46653,-3.80121 3.77962,-6.10351 1.31292,-2.30202 2.54932,-4.68459 3.71088,-7.14271 1.16185,-2.45884 2.24814,-4.98945 3.25562,-7.5954 1.0082,-2.60776 1.93999,-5.2887 2.79311,-8.03931 0.85277,-2.7493 1.62647,-5.57439 2.3244,-8.46666 0.69739,-2.89002 1.3167,-5.84712 1.85726,-8.87285 0.54038,-3.02454 1.00285,-6.11642 1.38492,-9.27178 0.38207,-3.15519 0.6837,-6.37414 0.90589,-9.65419 0.22233,-3.28221 0.36502,-6.62397 0.42582,-10.02316 0.0608,-3.40124 0.0415,-6.86176 -0.0605,-10.37922 -0.10203,-3.51626 -0.28774,-7.09208 -0.55448,-10.72285 -0.26663,-3.62898 -0.61602,-7.31277 -1.04904,-11.05049 -0.43302,-3.73749 -0.94987,-7.52751 -1.55081,-11.36727 -0.6012,-3.84144 -1.28398,-7.73233 -2.05465,-11.67009 -0.7709,-3.93884 -1.62782,-7.92743 -2.57039,-11.96051 -0.94239,-4.032203 -1.97123,-8.11059 -3.08766,-12.234396 -1.11603,-4.12228 -2.32134,-8.289608 -3.61322,-12.498462 -1.29207,-4.209512 -2.67009,-8.458081 -4.13876,-12.745992 -1.46882,-4.288274 -3.02904,-8.617984 -4.67776,-12.98422 -1.64888,-4.366658 -3.3854,-8.768677 -5.21466,-13.204879 -0.33931,-0.822874 -0.74282,-1.736079 -1.11725,-2.599842 h -6.71483 c 0.70294,1.648596 1.45077,3.311177 2.127,4.951119 1.80639,4.380724 3.52163,8.726229 5.148,13.033313 1.32402,3.506305 2.59281,6.989654 3.80907,10.468612 4.01081,11.472442 2.36033,22.141164 -4.61574,27.76368 -3.48802,2.811258 -8.37792,3.867875 -12.97233,2.683557 -4.59441,-1.184318 -8.85187,-4.272376 -12.65814,-8.992216 -0.36626,-0.454152 -0.72869,-0.915955 -1.08624,-1.384411 -0.79962,-1.047609 -1.56682,-2.117732 -2.30632,-3.211174 -0.74116,-1.095874 -1.4534,-2.217804 -2.13889,-3.361552 -0.68528,-1.143427 -1.34565,-2.311026 -1.97869,-3.503662 -0.63054,-1.187825 -1.23716,-2.403911 -1.82004,-3.644739 -0.58368,-1.242476 -1.14075,-2.503848 -1.67173,-3.783231 -0.53188,-1.281609 -1.04116,-2.588096 -1.52756,-3.917591 -0.48553,-1.327123 -0.94791,-2.675127 -1.38855,-4.045231 -0.44059,-1.370322 -0.8584,-2.761416 -1.25573,-4.171838 -0.39744,-1.410735 -0.77474,-2.842055 -1.1312,-4.292761 -0.35647,-1.450681 -0.69244,-2.921858 -1.00976,-4.410067 -0.31773,-1.490181 -0.6145,-2.996713 -0.89452,-4.519621 -0.27986,-1.522057 -0.54345,-3.064282 -0.7891,-4.625041 -0.24556,-1.560096 -0.47473,-3.138562 -0.68729,-4.73046 -0.21271,-1.593657 -0.40832,-3.201846 -0.59015,-4.824512 -0.18208,-1.6249 -0.34839,-3.264651 -0.50178,-4.917529 -0.15323,-1.65101 -0.29429,-3.31963 -0.42167,-5.004346 -0.12706,-1.680825 -0.24262,-3.375808 -0.34572,-5.085478 -0.058,-0.9620359 -0.10371,-1.9364713 -0.15451,-2.9062821 z" /><path
         id="path1"
         style="color:#000000;display:inline;fill:#000000;fill-opacity:1;fill-rule:evenodd;-inkscape-stroke:none"
         d="m 120.40144,1.9652547 c -0.0386,0.9754469 -0.0731,1.9565063 -0.11834,2.9233358 -0.0801,1.7109765 -0.16985,3.4093671 -0.2713,5.0916789 -0.10141,1.6816506 -0.215,3.3484156 -0.34003,5.0022786 -0.12496,1.652826 -0.26346,3.290643 -0.41393,4.911845 -0.15041,1.620749 -0.31398,3.226409 -0.49196,4.814693 -0.17805,1.588919 -0.36918,3.159353 -0.57619,4.710824 -0.20731,1.552538 -0.42963,3.087768 -0.66818,4.603336 -0.23839,1.514693 -0.49418,3.01112 -0.76585,4.488615 -0.27163,1.477281 -0.559,2.933804 -0.86506,4.369243 -0.30626,1.436344 -0.63015,2.85228 -0.97255,4.245735 -0.34224,1.392829 -0.70365,2.764834 -1.08417,4.115511 -0.38038,1.35025 -0.77974,2.678355 -1.19889,3.982186 -0.41933,1.303861 -0.85856,2.583645 -1.31879,3.841626 -0.46052,1.258745 -0.94183,2.493195 -1.44332,3.701583 -0.50125,1.207753 -1.02384,2.393899 -1.56993,3.556372 -0.54582,1.161927 -1.11405,2.298176 -1.70326,3.408061 -0.59006,1.111784 -1.20246,2.197561 -1.83813,3.258199 -0.6354,1.060174 -1.29557,2.097016 -1.98024,3.109371 -0.68424,1.011727 -1.3912,1.997699 -2.12493,2.958992 -0.32929,0.431433 -0.661158,0.854733 -0.995807,1.26969 -13.121193,16.270545 -27.890622,3.783469 -20.88658,-16.250687 1.200584,-3.434117 2.453868,-6.874364 3.763078,-10.341488 1.606574,-4.25466 3.303389,-8.549035 5.089612,-12.880868 1.698131,-4.118233 3.489682,-8.274845 5.351611,-12.457637 H 74.434733 c -0.84893,1.985339 -1.748153,3.988685 -2.561601,5.961393 -1.850025,4.486598 -3.607556,8.940307 -5.275647,13.357841 -1.668025,4.417401 -3.246502,8.799279 -4.734078,13.14235 -1.48752,4.342971 -2.88434,8.648593 -4.193542,12.913941 -1.309143,4.265142 -2.530018,8.489709 -3.662309,12.672094 -1.132368,4.182689 -2.177488,8.322222 -3.134692,12.417847 -0.957316,4.096164 -1.827466,8.149784 -2.61121,12.154294 -0.783817,4.00495 -1.479949,7.96325 -2.091862,11.87318 -0.611853,3.90943 -1.138202,7.77062 -1.579749,11.58172 -0.441505,3.81102 -0.798373,7.57016 -1.070736,11.27735 -0.272364,3.7074 -0.461903,7.36301 -0.566373,10.96316 -0.104477,3.6002 -0.124943,7.14612 -0.06253,10.63449 0.06241,3.48785 0.209177,6.91982 0.4377,10.29343 0.228464,3.37281 0.539866,6.68633 0.933793,9.93944 0.393942,3.25336 0.870453,6.44582 1.42937,9.57409 0.559027,3.12911 1.200168,6.19398 1.923913,9.19324 0.72387,2.99972 1.529191,5.93565 2.417941,8.80101 0.888581,2.86496 1.859962,5.66218 2.914034,8.38864 1.054013,2.72631 2.191239,5.37913 3.410128,7.95869 1.218803,2.57928 2.520093,5.08608 3.904671,7.51375 1.384574,2.42768 2.851498,4.77495 4.012675,6.47506 1.161176,1.70011 1.956139,2.81144 2.77244,3.90415 0.815838,1.09208 1.652012,2.16236 2.507858,3.21066 0.855764,1.04821 1.731613,2.07661 2.62878,3.08198 0.897744,1.00602 1.816084,1.98916 2.75177,2.94762 0.937193,0.96015 1.893091,1.89556 2.869075,2.80862 0.975072,0.91222 1.971479,1.8023 2.988448,2.6696 1.016341,0.86676 2.052141,1.70861 3.105237,2.52543 1.053166,0.81688 2.126321,1.61069 3.218925,2.37918 1.092254,0.76823 2.201871,1.51143 3.330029,2.22829 1.12784,0.71666 2.275864,1.40819 3.441651,2.07429 1.167042,0.66684 2.34859,1.30575 3.546553,1.91772 1.198441,0.61222 2.416314,1.19958 3.652495,1.7601 1.23437,0.55955 2.48575,1.09154 3.75377,1.59731 1.26931,0.50629 2.55258,0.98518 3.85145,1.43557 1.29906,0.45062 2.61636,0.87549 3.94963,1.27176 1.33164,0.39581 2.67982,0.76296 4.04264,1.10329 1.36428,0.34065 2.74216,0.65352 4.13309,0.93741 1.3913,0.284 2.79754,0.53985 4.22041,0.76792 1.42113,0.22779 2.85797,0.42811 4.30878,0.59944 1.45136,0.17139 2.91566,0.31359 4.3925,0.42788 1.47858,0.11444 2.96988,0.20059 4.47466,0.25787 1.50403,0.0572 3.02357,0.0858 4.55683,0.0858 1.53326,0 3.05286,-0.0286 4.55682,-0.0858 1.50478,-0.0573 2.99609,-0.14343 4.47467,-0.25787 1.47684,-0.11429 2.9412,-0.25649 4.39249,-0.42788 1.45081,-0.17133 2.88772,-0.37165 4.30878,-0.59944 1.42287,-0.22807 2.82905,-0.48392 4.22042,-0.76792 1.39093,-0.28389 2.7688,-0.59676 4.13308,-0.93741 1.36289,-0.34033 2.71101,-0.70748 4.04265,-1.10329 1.33327,-0.39627 2.65057,-0.82114 3.94963,-1.27176 1.29887,-0.45039 2.58213,-0.92928 3.85144,-1.43557 1.26802,-0.50577 2.51941,-1.03776 3.75378,-1.59731 1.23616,-0.56052 2.45405,-1.14788 3.65249,-1.7601 1.19798,-0.61197 2.3795,-1.25088 3.54655,-1.91772 1.16579,-0.6661 2.3138,-1.35763 3.44165,-2.07429 1.12817,-0.71686 2.23777,-1.46006 3.33003,-2.22829 1.09261,-0.76849 2.16576,-1.5623 3.21893,-2.37918 1.05311,-0.81682 2.08888,-1.65867 3.10523,-2.52543 1.01698,-0.8673 2.01337,-1.75738 2.98845,-2.6696 0.97599,-0.91306 1.93188,-1.84847 2.86908,-2.80862 0.9357,-0.95846 1.85402,-1.9416 2.75177,-2.94762 0.89718,-1.00537 1.77301,-2.03377 2.62878,-3.08198 0.85585,-1.0483 1.69201,-2.11858 2.50785,-3.21066 0.81631,-1.09271 1.61133,-2.20404 2.77244,-3.90415 1.16119,-1.70011 2.62809,-4.04738 4.01268,-6.47506 1.38458,-2.42767 2.68585,-4.93447 3.90467,-7.51375 1.21889,-2.57956 2.35611,-5.23238 3.41013,-7.95869 1.05408,-2.72646 2.02544,-5.52368 2.91403,-8.38864 0.88876,-2.86536 1.69407,-5.80129 2.41794,-8.80101 0.72375,-2.99926 1.36489,-6.06413 1.92392,-9.19324 0.55892,-3.12827 1.03543,-6.32073 1.42937,-9.57409 0.39393,-3.25311 0.70532,-6.56663 0.93379,-9.93944 0.22852,-3.37361 0.3753,-6.80558 0.4377,-10.29343 0.0624,-3.48837 0.0419,-7.03429 -0.0625,-10.63449 -0.10447,-3.60015 -0.294,-7.25576 -0.56637,-10.96316 -0.27237,-3.70719 -0.62923,-7.46633 -1.07074,-11.27735 -0.44155,-3.8111 -0.9679,-7.67229 -1.57975,-11.58172 -0.61192,-3.90993 -1.30804,-7.86823 -2.09186,-11.87318 -0.78375,-4.00451 -1.65389,-8.05813 -2.61121,-12.154294 -0.95721,-4.095622 -2.00232,-8.235158 -3.13469,-12.417847 -1.1323,-4.182385 -2.35316,-8.406952 -3.66231,-12.672094 -1.30921,-4.265348 -2.70601,-8.57097 -4.19354,-12.913941 -1.48759,-4.343071 -3.06604,-8.724949 -4.73408,-13.14235 -1.6681,-4.417534 -3.42561,-8.871243 -5.27565,-13.357841 -0.81345,-1.972708 -1.71266,-3.976054 -2.5616,-5.961393 h -18.54357 c 1.86194,4.182792 3.65346,8.339404 5.35161,12.457637 1.78623,4.331833 3.48302,8.626208 5.08961,12.880868 1.30922,3.467124 2.56249,6.907371 3.76308,10.341488 7.00402,20.034156 -7.76536,32.521228 -20.88658,16.250687 -0.33465,-0.414957 -0.66651,-0.838257 -0.9958,-1.26969 -0.73373,-0.961293 -1.4407,-1.947265 -2.12494,-2.958992 -0.68467,-1.012355 -1.34484,-2.049197 -1.98024,-3.109371 -0.63567,-1.060638 -1.248,-2.146415 -1.83813,-3.258199 -0.58921,-1.109885 -1.15744,-2.246134 -1.70326,-3.408061 -0.54609,-1.162473 -1.06868,-2.348619 -1.56993,-3.556372 -0.50149,-1.208388 -0.9828,-2.442838 -1.44332,-3.701583 -0.46023,-1.257981 -0.89945,-2.537765 -1.31878,-3.841626 -0.41922,-1.303831 -0.81851,-2.631936 -1.19889,-3.982186 -0.38052,-1.350677 -0.74194,-2.722682 -1.08418,-4.115511 -0.3424,-1.393455 -0.66629,-2.809391 -0.97255,-4.245735 -0.30606,-1.435439 -0.59343,-2.891962 -0.86506,-4.369243 -0.27167,-1.477495 -0.52745,-2.973922 -0.76584,-4.488615 -0.23855,-1.515568 -0.46087,-3.050798 -0.66818,-4.603336 -0.20708,-1.551471 -0.39814,-3.121905 -0.57619,-4.710824 -0.17798,-1.588284 -0.34155,-3.193944 -0.49196,-4.814693 -0.15047,-1.621202 -0.28897,-3.259019 -0.41393,-4.911845 -0.12503,-1.653863 -0.23862,-3.320628 -0.34003,-5.0022786 -0.10145,-1.6823121 -0.1912,-3.3807018 -0.2713,-5.0916789 -0.0452,-0.966829 -0.0797,-1.9478889 -0.11834,-2.9233358 z m 15.50344,12.9630333 h 13.73353 c 0.0304,0.423545 0.0544,0.852525 0.0863,1.274857 0.13152,1.739714 0.27615,3.468998 0.43563,5.187281 0.1595,1.71872 0.3356,3.426085 0.52555,5.121134 0.18987,1.69443 0.39366,3.378177 0.61702,5.050855 0.22311,1.671579 0.46384,3.332256 0.72295,4.978507 0.25925,1.647144 0.53793,3.279461 0.83561,4.898409 0.29773,1.619179 0.61541,3.225732 0.95498,4.818311 0.33936,1.591644 0.70011,3.169533 1.08417,4.732527 0.38422,1.563654 0.79131,3.11144 1.22267,4.642611 0.43147,1.5316 0.88846,3.048756 1.37097,4.549076 0.4825,1.500306 0.99143,2.983432 1.52756,4.448824 0.53584,1.464645 1.09956,2.912794 1.69343,4.343921 0.59422,1.43178 1.21612,2.844247 1.86914,4.234367 0.65327,1.390669 1.33861,2.762317 2.05672,4.114994 0.7171,1.350792 1.46712,2.681616 2.25155,3.990455 0.78463,1.309288 1.60235,2.594635 2.45514,3.855578 0.85321,1.261573 1.7424,2.500205 2.66806,3.712952 0.92523,1.212216 1.88702,2.3988 2.88664,3.558439 0.99903,1.15893 2.03577,2.291242 3.11144,3.394625 1.07619,1.103923 2.19095,2.177142 3.34192,3.218925 0.71575,0.647923 1.4748,1.262334 2.22105,1.886704 h -81.61052 c 0.74625,-0.62437 1.50523,-1.238785 2.22105,-1.886704 1.15097,-1.041781 2.26572,-2.114999 3.34191,-3.218925 1.07567,-1.103383 2.11241,-2.235699 3.11144,-3.394625 0.99962,-1.159639 1.96142,-2.346223 2.88665,-3.558439 0.92566,-1.212747 1.81484,-2.451379 2.66805,-3.712952 0.85279,-1.260943 1.67045,-2.54629 2.45515,-3.855578 0.78443,-1.308839 1.53444,-2.639663 2.25154,-3.990455 0.71811,-1.352677 1.40345,-2.724325 2.05672,-4.114994 0.65302,-1.39012 1.27492,-2.802587 1.86914,-4.234367 0.59394,-1.431127 1.1576,-2.879276 1.69344,-4.343921 0.53613,-1.465392 1.04505,-2.948518 1.52755,-4.448824 0.48251,-1.50032 0.93951,-3.017476 1.37098,-4.549076 0.43136,-1.531171 0.83844,-3.078957 1.22266,-4.642611 0.38406,-1.562994 0.74481,-3.140883 1.08417,-4.732527 0.33957,-1.592579 0.65725,-3.199132 0.95498,-4.818311 0.29768,-1.618948 0.57636,-3.251265 0.83561,-4.898409 0.25911,-1.646251 0.49991,-3.306928 0.72295,-4.978507 0.22336,-1.672678 0.42715,-3.356425 0.61702,-5.050855 0.18995,-1.695049 0.36605,-3.402414 0.52555,-5.121134 0.15948,-1.718283 0.30411,-3.447567 0.43563,-5.187281 0.0319,-0.422332 0.0559,-0.851312 0.0863,-1.274857 z m 7.95817,6.608899 c -0.81593,0.383995 -1.24661,1.368506 -1.26917,2.166792 -0.19078,6.751504 -0.29657,15.14005 -0.39119,23.03632 -0.10261,8.562206 -0.35044,16.508507 -0.13178,22.097876 -2.88328,1.284519 -7.19764,2.619561 -8.83098,-1.211812 -1.15271,-3.178049 0.78127,-14.802804 -1.11001,-19.125964 -0.33487,0.465969 -0.54839,1.091621 -0.53795,1.623673 0.72213,5.506858 -0.11957,11.06817 0.0894,16.59692 0.21791,3.296374 1.6829,5.181037 3.76566,5.474084 2.28108,0.320983 5.0037,-1.052715 7.06468,-1.37666 0.46253,0.924526 1.00412,2.025172 1.89963,2.728516 0.64227,0.504451 1.32875,0.573415 1.89446,0.391707 0.74283,-0.238595 1.23363,-0.823327 1.63349,-1.945101 0.6371,-1.787364 0.24788,-3.038938 -1.25264,-3.473173 -1.12645,-0.32598 -2.30186,-0.382967 -3.36362,-0.189135 -0.0765,-1.821368 -0.14971,-3.744517 -0.14159,-5.575371 0.79024,1.186847 1.33691,2.236752 3.21066,2.744019 2.10902,0.685615 8.7361,0.56654 10.92026,-4.546493 -2.23777,1.167335 -4.46202,2.56828 -7.04453,2.754354 -2.81701,0.140067 -4.4143,-3.1745 -4.55734,-5.985681 -0.0485,-0.953789 -0.0461,-0.960113 0.44286,-1.112077 1.17145,-0.364044 2.83128,-0.724875 3.80907,-0.827856 3.84596,-0.405048 4.25964,1.023337 5.00693,0.597379 -1.69313,-1.230618 -3.69019,-2.557997 -5.97173,-2.347143 -2.38436,0.223538 -3.7466,2.098706 -3.99613,2.777608 -0.5987,1.62873 -0.53446,3.352277 -0.26821,4.935616 -1.41082,-0.906962 -1.24169,-5.211959 -1.13223,-7.511686 0.0577,-1.212505 0.48538,-29.721704 0.262,-32.696712 z m -3.52846,33.205725 -5.79603,2.910416 0.10438,0.77153 5.79552,-2.9099 z m 0.18758,1.390613 -5.79603,2.910416 0.10439,0.772046 5.79551,-2.910417 z m 17.29352,9.006685 -8.77001,2.443262 -0.19533,0.897619 8.77,-2.442745 z m -3.06286,2.878894 c -0.11024,0.0042 -0.21297,0.05702 -0.28061,0.144177 l -0.83715,1.077454 c -0.1083,0.13952 -0.0706,0.342287 0.0806,0.433565 l 1.86139,1.123963 c 0.16215,0.09776 0.37179,0.05867 0.48782,-0.09095 l 0.83716,-1.077454 c 0.1083,-0.13952 0.0706,-0.342287 -0.0806,-0.433565 l -1.86139,-1.123962 c -0.0624,-0.03758 -0.13443,-0.05608 -0.20722,-0.05323 z M 128.37201,70.0288 c -0.0269,0.0039 -0.0898,0.05866 -0.23048,0.196371 -0.26111,0.255544 -0.5709,1.158117 -0.61908,1.876371 -0.008,0.125877 0.15382,0.829924 0.61547,0.829924 0.47855,0 1.20141,-0.03103 1.57716,-0.376722 0.29234,-0.340379 0.44718,-0.807568 0.22841,-1.214912 -0.33508,-0.560951 -1.37875,-0.774982 -1.51257,-0.996839 -0.0864,-0.143197 -0.008,-0.321626 -0.0589,-0.314193 z m 16.98243,0.292486 c 0.58623,0.07792 1.30029,0.389091 1.61333,0.978235 0.24747,0.440953 0.2525,0.528694 0.032,0.557589 -0.67587,0.08861 -2.10021,-0.436899 -2.49183,-1.115694 -0.20433,-0.354157 0.28683,-0.494595 0.8465,-0.42013 z m 11.13213,0.556041 c -0.10829,0.311734 -0.46138,1.350354 0.14056,2.567286 0.64328,1.300504 2.08944,2.90486 1.98644,3.876766 -1.84716,0.614055 -3.77506,0.893904 -5.71593,0.946195 -1.2337,-0.0829 -1.62703,0.560535 -1.83141,1.696021 2.82077,0.449226 5.51996,1.017285 8.21707,1.973006 -1.46484,2.080724 -13.3915,6.463675 -17.91674,1.846399 -1.74669,-1.847806 -0.99545,-4.126669 -0.19947,-6.110222 -3.47744,3.349383 -2.28018,10.590629 6.21771,10.14305 2.51777,-0.132608 10.43096,-2.260696 12.57856,-4.849316 0.89082,-1.073762 0.56601,-2.328525 -0.62477,-2.933154 -0.42037,-0.213466 -1.50468,-0.582936 -2.14663,-0.751376 0.60656,-0.256832 1.30262,-0.630309 1.64589,-1.071769 0.45064,-0.579544 0.68485,-2.073899 0.44338,-2.828768 -0.23207,-0.714083 -0.62203,-1.340985 -1.04076,-1.974039 0.33293,-0.109483 0.49004,-0.138247 0.9772,-0.213424 -0.75173,-0.913402 -1.59544,-1.63715 -2.7311,-2.316655 z m -28.19931,0.175184 c 0.18375,-10e-7 1.26917,0.700481 1.26917,0.868164 0,0.173648 -0.65322,0.397873 -0.91467,0.394291 -0.37612,-0.005 -0.74621,-0.298448 -0.74621,-0.591695 0,-0.228854 0.20797,-0.670759 0.39171,-0.67076 z m -2.87889,2.494938 -0.0253,1.562178 c 3.10305,3.277776 10.14275,4.03145 10.65724,5.474602 -0.81029,0.754253 -8.36165,5.61051 -11.3559,5.61051 -2.70226,0 -1.66536,-2.983805 -1.44384,-3.220475 -1.42549,0.531403 -0.86593,3.98319 -0.61133,4.371309 0.74322,1.132975 3.01552,0.645771 4.37131,0.148828 0.84766,-0.310694 6.36791,-2.888425 8.29768,-4.652429 2.114,-1.932417 1.43681,-3.778848 0.0894,-4.693254 -1.32906,-0.902042 -6.07251,-1.907849 -7.07088,-2.879411 0.16613,-0.178487 0.43613,-0.291788 0.58446,-0.355533 -0.29097,-0.24178 -2.86857,-1.26729 -3.49281,-1.366325 z m 35.24074,4.121712 -0.28836,0.858346 c 0.61821,1.462865 1.19355,3.204226 0.15762,5.009513 -0.20426,0.351291 -0.44122,0.67332 -0.48473,1.103292 1.54136,-1.567747 2.60827,-4.011572 0.61547,-6.971151 z m 1.85312,5.966044 c 0.0974,1.272767 0.28799,2.563674 1.20767,3.667476 0.39692,0.50391 2.53215,2.444756 2.53215,3.161565 -5.13992,4.399568 -11.67363,6.107659 -18.58026,8.408789 2.62382,-0.196218 7.17018,-0.930333 7.92355,-1.116728 2.15938,-0.534269 7.75368,-3.210229 10.00559,-5.330424 0.811,-0.763569 1.17047,-1.583678 1.17047,-2.672705 -0.0296,-1.511873 -1.0894,-2.254304 -1.93942,-3.477824 -0.34207,-0.482412 0.26539,-0.479622 0.70177,-0.484208 -0.3996,-0.641137 -1.4853,-1.59651 -3.02152,-2.155941 z m -27.01283,0.219108 c -0.11024,0.0042 -0.21296,0.05702 -0.2806,0.144177 l -0.83716,1.077454 c -0.1087,0.139598 -0.071,0.34281 0.0806,0.434082 l 1.86138,1.123446 c 0.16215,0.09776 0.3718,0.05867 0.48783,-0.09095 l 0.83716,-1.077453 c 0.1083,-0.13952 0.0706,-0.342288 -0.0806,-0.433566 l -1.86138,-1.123445 c -0.0624,-0.03776 -0.13439,-0.05644 -0.20723,-0.05374 z m 18.97404,2.818433 c -0.0503,0.156526 -0.42371,1.439358 0.56069,2.23914 0.4224,0.355277 0.76589,0.754214 1.00976,1.196309 -6.60369,3.243521 -14.40143,3.873524 -17.51625,3.363619 -2.04946,-0.259882 -4.56697,-1.43435 -3.81578,-4.024044 1.17062,0.01043 2.94414,0.386772 3.4587,0.628902 l 0.0408,-1.816943 c -2.16757,-1.330125 -4.51623,-0.692151 -6.66832,0.45682 -4.13688,2.320757 -8.29175,7.43403 -11.23601,6.806303 -2.05021,-0.621842 -1.37454,-2.786409 -1.09761,-3.376022 -1.54066,1.793263 -1.16271,4.336647 1.3193,4.945952 2.69932,0.66265 4.87355,-1.886028 6.67711,-3.437517 3.49239,-3.028007 4.70235,-3.894117 7.05487,-4.197676 -0.43107,0.923691 -0.53685,2.113242 -0.14211,3.091284 0.37736,0.852068 1.02762,1.532351 1.89497,1.983341 1.64235,0.853939 4.58516,1.11796 7.69928,0.673344 6.55712,-0.936185 11.87722,-3.401084 12.26023,-3.833874 1.37053,-1.664328 0.0129,-4.302081 -1.49965,-4.698938 z m -9.001,2.17041 c -0.55392,0.210868 -0.16525,1.261173 0.0429,1.813843 0.19386,0.51478 0.12097,0.574125 -0.1142,0.574125 -0.45065,0 -0.83861,-0.229907 -1.0232,-0.606165 -0.18707,-0.381159 -0.0597,-1.229164 -0.42529,-1.739428 -0.4952,0.339599 -0.35672,0.81979 -0.24288,1.328084 0.24122,1.170853 -0.73427,1.48156 -1.2051,1.149284 -0.34068,-0.240432 -0.38706,-0.413333 -0.38706,-1.437639 0.0133,-0.393549 0.0613,-0.716451 -0.10955,-1.061434 -0.20789,0.149486 -0.38364,0.457835 -0.42581,0.644922 0.33852,0.9657 -0.3223,2.362911 0.81907,2.791044 0.80745,0.305787 1.35633,-0.554217 1.57406,-0.904337 0.48906,0.534523 1.1008,1.036412 1.8154,0.592729 0.26455,-0.164255 0.44492,-0.75148 0.40927,-0.964283 -0.13529,-0.807462 -0.67059,-1.723732 -0.7276,-2.180745 z m -11.91969,5.050338 -6.12055,2.145088 0.005,0.779281 6.12056,-2.145606 z m 17.40514,0.557588 -8.31164,2.700094 -0.0749,0.691947 8.31164,-2.699576 z m -11.99513,2.04277 c -0.11015,0.0041 -0.21286,0.0567 -0.2806,0.14366 l -0.83716,1.077971 c -0.1083,0.13952 -0.0706,0.342287 0.0806,0.433565 l 1.8619,1.123445 c 0.16191,0.09756 0.37119,0.05873 0.48731,-0.09043 l 0.83716,-1.077971 c 0.1083,-0.13952 0.0706,-0.342287 -0.0806,-0.433565 l -1.86139,-1.123446 c -0.0624,-0.03758 -0.13443,-0.05608 -0.20722,-0.05323 z M 65.066829,113.90468 h 71.223041 v 69.91924 H 61.015397 c -0.266421,-2.41054 -0.517967,-4.83552 -0.687296,-7.33547 -0.20876,-3.08171 -0.342964,-6.23035 -0.400493,-9.44542 -0.05752,-3.21458 -0.03804,-6.49496 0.05891,-9.83609 0.09696,-3.34119 0.27059,-6.74386 0.525033,-10.20713 0.254456,-3.46331 0.589362,-6.98666 1.004073,-10.56628 0.414684,-3.57922 0.910486,-7.21594 1.488281,-10.90786 0.692048,-4.42169 1.664106,-9.76657 2.062924,-11.62099 z m 84.186591,0 h 71.22304 c 0.39882,1.85442 1.37088,7.1993 2.06293,11.62099 0.5778,3.69192 1.07359,7.32864 1.48828,10.90786 0.41471,3.57962 0.74961,7.10297 1.00407,10.56628 0.25444,3.46327 0.42803,6.86594 0.52503,10.20713 0.0969,3.34113 0.11648,6.62151 0.0589,9.83609 -0.0575,3.21507 -0.19174,6.36371 -0.4005,9.44542 -0.16933,2.49995 -0.42087,4.92493 -0.68729,7.33547 H 149.2534 Z m 37.6375,3.08611 c -0.50522,0 -1.00855,0.0981 -1.49138,0.28319 -0.4833,0.18517 -0.94566,0.45555 -1.387,0.79892 -0.44116,0.34341 -0.86266,0.75979 -1.26556,1.2423 -0.40292,0.48249 -0.78636,1.03185 -1.156,1.64434 -0.3696,0.61248 -0.72356,1.28631 -1.06091,2.02158 -0.33744,0.7354 -0.6591,1.53123 -0.96274,2.38074 -0.30366,0.84931 -0.58791,1.75261 -0.85524,2.70526 -0.0587,0.20901 -0.11267,0.42883 -0.1695,0.64234 -0.19132,-0.11089 -0.38521,-0.22795 -0.57464,-0.33435 -0.86265,-0.4846 -1.7024,-0.92261 -2.51768,-1.30845 -0.81543,-0.38594 -1.60403,-0.71956 -2.36264,-1.00097 -0.75846,-0.28137 -1.48684,-0.50881 -2.18127,-0.68058 -0.69447,-0.17173 -1.35412,-0.28947 -1.98024,-0.34571 -0.62608,-0.0563 -1.21721,-0.051 -1.77198,0.0181 -0.55488,0.0693 -1.07428,0.20357 -1.54616,0.41496 -0.47188,0.2114 -0.89838,0.49686 -1.25574,0.85422 -0.35736,0.35736 -0.64179,0.78281 -0.85318,1.2547 -0.21139,0.4719 -0.34672,0.99283 -0.41599,1.54771 -0.0691,0.55477 -0.0739,1.14435 -0.0176,1.77043 0.0562,0.62612 0.17243,1.28737 0.34416,1.98179 0.17177,0.69447 0.40075,1.42126 0.68213,2.17972 0.2814,0.75862 0.61502,1.54722 1.00098,2.36264 0.38579,0.81528 0.8223,1.65658 1.30689,2.51923 0.10622,0.18911 0.22314,0.38262 0.33383,0.57361 -0.21281,0.0567 -0.43194,0.11051 -0.64027,0.16898 -0.95265,0.26733 -1.85594,0.55158 -2.70526,0.85524 -0.8495,0.30369 -1.64326,0.6253 -2.37867,0.96274 -0.73527,0.33735 -1.41113,0.69131 -2.02365,1.06091 -0.61245,0.36964 -1.16184,0.75304 -1.64434,1.15601 -0.4825,0.40285 -0.89682,0.82444 -1.24023,1.26555 -0.34338,0.44134 -0.61577,0.90385 -0.79996,1.387 -0.18414,0.48315 -0.28422,0.98652 -0.28422,1.4919 0,0.50533 0.10007,1.00719 0.28422,1.49034 0.18421,0.48316 0.45658,0.94721 0.79996,1.38855 0.34341,0.44116 0.75773,0.86114 1.24023,1.264 0.4825,0.40297 1.03189,0.78843 1.64434,1.15807 0.61252,0.3696 1.28838,0.7215 2.02365,1.05885 0.73541,0.33744 1.52917,0.65906 2.37867,0.96274 0.84932,0.30366 1.75261,0.58998 2.70526,0.85731 0.20869,0.0586 0.42813,0.11275 0.64131,0.1695 -0.11041,0.19053 -0.22736,0.3834 -0.33332,0.57205 -0.48459,0.86265 -0.92265,1.7024 -1.30844,2.51768 -0.38596,0.81542 -0.71957,1.60403 -1.00098,2.36265 -0.28137,0.75846 -0.50932,1.4868 -0.68109,2.18126 -0.17173,0.69448 -0.28896,1.35411 -0.3452,1.98024 -0.0563,0.62607 -0.0505,1.21726 0.0186,1.77198 0.0693,0.55488 0.20356,1.07428 0.41496,1.54616 0.21139,0.47188 0.49687,0.89843 0.85422,1.25574 0.35736,0.35736 0.78281,0.64179 1.2547,0.85318 0.4719,0.21139 0.99231,0.34672 1.54719,0.41599 0.55478,0.0691 1.14487,0.0739 1.77095,0.0176 0.62612,-0.0562 1.28731,-0.17243 1.98179,-0.34416 0.69442,-0.17177 1.42126,-0.40076 2.17972,-0.68213 0.75861,-0.2814 1.54722,-0.61502 2.36264,-1.00097 0.81528,-0.3858 1.65658,-0.82231 2.51923,-1.3069 0.1891,-0.10622 0.38262,-0.22314 0.57361,-0.33383 0.0567,0.21297 0.11046,0.43229 0.16898,0.64079 0.26733,0.9526 0.55158,1.85594 0.85524,2.70526 0.30364,0.8495 0.6253,1.64326 0.96274,2.37867 0.33735,0.73527 0.69131,1.41113 1.06091,2.02365 0.36964,0.61245 0.75308,1.16184 1.156,1.64434 0.4029,0.4825 0.8244,0.89682 1.26556,1.24023 0.44134,0.34338 0.90385,0.61576 1.387,0.79995 0.48298,0.18413 0.98617,0.28423 1.49138,0.28423 0.5052,0 1.0084,-0.1001 1.49138,-0.28423 0.48315,-0.18419 0.94566,-0.45657 1.387,-0.79995 0.44111,-0.34341 0.86265,-0.75773 1.26555,-1.24023 0.40297,-0.4825 0.78636,-1.03189 1.156,-1.64434 0.3696,-0.61252 0.72358,-1.28838 1.06092,-2.02365 0.33744,-0.73541 0.65908,-1.52917 0.96273,-2.37867 0.30366,-0.84932 0.58791,-1.75266 0.85525,-2.70526 0.0585,-0.2085 0.11228,-0.42782 0.16898,-0.64079 0.19099,0.11069 0.38451,0.22761 0.57361,0.33383 0.86264,0.48459 1.70394,0.9211 2.51922,1.3069 0.81541,0.38595 1.60403,0.71957 2.36265,1.00097 0.75846,0.28137 1.48527,0.51036 2.17971,0.68213 0.69448,0.17173 1.35568,0.28796 1.98179,0.34416 0.62608,0.0563 1.21618,0.0516 1.77095,-0.0176 0.55487,-0.0693 1.0753,-0.2046 1.5472,-0.41599 0.47189,-0.21139 0.89733,-0.49582 1.2547,-0.85318 0.35735,-0.35731 0.64282,-0.78386 0.85421,-1.25574 0.21141,-0.47188 0.34566,-0.99128 0.41496,-1.54616 0.0691,-0.55472 0.0744,-1.14591 0.0181,-1.77198 -0.0562,-0.62613 -0.17346,-1.28576 -0.3452,-1.98024 -0.17176,-0.69446 -0.39973,-1.4228 -0.68109,-2.18126 -0.28141,-0.75862 -0.61503,-1.54723 -1.00098,-2.36265 -0.38585,-0.81528 -0.82386,-1.65503 -1.30844,-2.51768 -0.10597,-0.18865 -0.22291,-0.38152 -0.33332,-0.57205 0.21318,-0.0568 0.43262,-0.1109 0.64131,-0.1695 0.95265,-0.26733 1.85595,-0.55365 2.70526,-0.85731 0.84951,-0.30368 1.64326,-0.6253 2.37867,-0.96274 0.73523,-0.33735 1.41117,-0.68925 2.02364,-1.05885 0.6125,-0.36964 1.16185,-0.7551 1.64435,-1.15807 0.48249,-0.40286 0.89682,-0.82284 1.24023,-1.264 0.34339,-0.44134 0.61574,-0.90539 0.79995,-1.38855 0.18419,-0.48315 0.28422,-0.98501 0.28422,-1.49034 0,-0.50538 -0.10003,-1.00875 -0.28422,-1.4919 -0.18419,-0.48315 -0.45656,-0.94566 -0.79995,-1.387 -0.34341,-0.44111 -0.75774,-0.8627 -1.24023,-1.26555 -0.4825,-0.40297 -1.03185,-0.78637 -1.64435,-1.15601 -0.61247,-0.3696 -1.28841,-0.72356 -2.02364,-1.06091 -0.73541,-0.33744 -1.52916,-0.65905 -2.37867,-0.96274 -0.84931,-0.30366 -1.75261,-0.58791 -2.70526,-0.85524 -0.20833,-0.0585 -0.42746,-0.11228 -0.64027,-0.16898 0.1107,-0.19099 0.22761,-0.3845 0.33383,-0.57361 0.48459,-0.86265 0.92105,-1.70395 1.30689,-2.51923 0.38595,-0.81542 0.71958,-1.60402 1.00098,-2.36264 0.28138,-0.75846 0.51035,-1.48525 0.68213,-2.17972 0.17173,-0.69442 0.28796,-1.35567 0.34416,-1.98179 0.0564,-0.62608 0.052,-1.21566 -0.0171,-1.77043 -0.0693,-0.55488 -0.20461,-1.07581 -0.416,-1.54771 -0.21139,-0.47189 -0.49582,-0.89734 -0.85318,-1.2547 -0.35735,-0.35736 -0.78385,-0.64282 -1.25573,-0.85422 -0.47188,-0.21139 -0.99128,-0.34566 -1.54616,-0.41496 -0.55478,-0.0691 -1.14591,-0.0744 -1.77199,-0.0181 -0.62612,0.0562 -1.28578,0.17398 -1.98024,0.34571 -0.69445,0.17177 -1.42279,0.39921 -2.18126,0.68058 -0.75861,0.28141 -1.54723,0.61503 -2.36265,1.00097 -0.81528,0.38584 -1.65502,0.82385 -2.51767,1.30845 -0.18942,0.1064 -0.38332,0.22346 -0.57464,0.33435 -0.0568,-0.21351 -0.1108,-0.43333 -0.1695,-0.64234 -0.26734,-0.95265 -0.55159,-1.85595 -0.85525,-2.70526 -0.30365,-0.84951 -0.62529,-1.64534 -0.96273,-2.38074 -0.33735,-0.73527 -0.69132,-1.4091 -1.06092,-2.02158 -0.36964,-0.61249 -0.75303,-1.16185 -1.156,-1.64434 -0.4029,-0.48251 -0.82444,-0.89889 -1.26555,-1.2423 -0.44134,-0.34337 -0.9037,-0.61375 -1.387,-0.79892 -0.48282,-0.18508 -0.98615,-0.28319 -1.49138,-0.28319 z m 0,1.72083 c 0.28589,0 0.57396,0.052 0.87643,0.16795 0.3025,0.1159 0.61999,0.29627 0.94723,0.55087 0.32717,0.25468 0.66291,0.58295 0.99994,0.98753 0.33703,0.40457 0.67239,0.88168 1.00355,1.43041 0.33112,0.54877 0.65712,1.16734 0.971,1.85156 0.314,0.68433 0.61762,1.43234 0.90641,2.24018 0.28876,0.80764 0.56259,1.67233 0.8201,2.59002 0.0988,0.35206 0.18246,0.74575 0.27596,1.11259 -0.17447,0.10921 -0.3467,0.21186 -0.52245,0.32453 -0.89906,0.57659 -1.81392,1.19598 -2.7373,1.85622 -0.92334,0.66013 -1.85452,1.35948 -2.7895,2.09393 -0.25018,0.1965 -0.75086,0.60254 -0.75086,0.60254 0,0 -0.50171,-0.40604 -0.75189,-0.60254 -0.93498,-0.73445 -1.86615,-1.4338 -2.78949,-2.09393 -0.92338,-0.66024 -1.83824,-1.27963 -2.7373,-1.85622 -0.17575,-0.11267 -0.34798,-0.21532 -0.52245,-0.32453 0.0935,-0.36684 0.17714,-0.76053 0.27595,-1.11259 0.25751,-0.91769 0.53135,-1.78238 0.82011,-2.59002 0.28879,-0.80784 0.5924,-1.55585 0.9064,-2.24018 0.31393,-0.68422 0.63988,-1.30279 0.971,-1.85156 0.33116,-0.54873 0.66653,-1.02584 1.00356,-1.43041 0.33703,-0.40458 0.67277,-0.73285 0.99994,-0.98753 0.32724,-0.2546 0.64473,-0.43497 0.94723,-0.55087 0.30247,-0.11599 0.59054,-0.16795 0.87643,-0.16795 z m -88.238544,2.19521 c -0.0905,0 -0.180743,0.0574 -0.195853,0.17208 l -1.309481,9.93583 -3.222542,-9.48934 c -0.07435,-0.21902 -0.400087,-0.15436 -0.38499,0.0765 l 0.654224,9.99991 -5.012097,-8.67803 c -0.115655,-0.2003 -0.422083,-0.0736 -0.362252,0.14986 l 2.592606,9.68055 -6.608899,-7.53339 c -0.152504,-0.17389 -0.428349,0.0101 -0.326078,0.21756 l 4.431254,8.98911 -7.951452,-6.09988 c -0.183501,-0.14079 -0.418281,0.094 -0.277503,0.2775 l 4.439522,5.78724 -11.488704,-4.91804 v 35.1038 l 25.021212,10.71097 25.023797,-10.71097 v -35.1038 l -11.48819,4.91701 4.43901,-5.78621 c 0.14079,-0.1835 -0.094,-0.41828 -0.27751,-0.2775 l -7.95145,6.09988 4.43126,-8.98911 c 0.10229,-0.20745 -0.17355,-0.39144 -0.32608,-0.21756 l -6.60942,7.53391 2.59312,-9.68107 c 0.0598,-0.22341 -0.24709,-0.35015 -0.36276,-0.14986 l -5.0121,8.67854 0.65422,-10.00042 c 0.0151,-0.23079 -0.31009,-0.29545 -0.38447,-0.0765 l -3.22254,9.48934 -1.309483,-9.93583 c -0.0151,-0.11466 -0.105881,-0.17208 -0.196371,-0.17208 z m 69.376124,5.81463 c 0.23409,-0.002 0.48229,0.008 0.74414,0.0315 0.52365,0.047 1.09918,0.14742 1.72135,0.30127 0.62218,0.1539 1.28943,0.36139 1.99522,0.62322 0.70592,0.26186 1.44977,0.57608 2.22519,0.94309 0.77528,0.36691 1.58127,0.78582 2.41226,1.25264 0.32413,0.18206 0.65468,0.37716 0.98547,0.57361 -0.0476,0.2064 -0.0983,0.40655 -0.14418,0.6165 -0.22802,1.04343 -0.43715,2.12807 -0.62322,3.24786 -0.18613,1.11964 -0.35016,2.2726 -0.49196,3.45302 -0.038,0.31585 -0.0698,0.63821 -0.10439,0.95757 -0.31937,0.0346 -0.64171,0.0664 -0.95756,0.10438 -1.18047,0.1418 -2.33334,0.30588 -3.45302,0.49196 -1.11979,0.18607 -2.20442,0.3952 -3.24786,0.62322 -0.20975,0.0459 -0.4098,0.0962 -0.61599,0.14366 -0.19644,-0.33077 -0.39207,-0.66083 -0.57412,-0.98495 -0.46681,-0.831 -0.88573,-1.63698 -1.25264,-2.41226 -0.36702,-0.77539 -0.68123,-1.51925 -0.94309,-2.22519 -0.26183,-0.70578 -0.47036,-1.37201 -0.62425,-1.99419 -0.15385,-0.62218 -0.2527,-1.19868 -0.29973,-1.72238 -0.0471,-0.52363 -0.0422,-0.99261 0.01,-1.40404 0.0513,-0.41142 0.14813,-0.76352 0.28009,-1.05937 0.13194,-0.29608 0.29641,-0.53721 0.49868,-0.73949 0.20228,-0.20227 0.44448,-0.36774 0.74052,-0.49971 0.29585,-0.13195 0.64795,-0.22872 1.05937,-0.28009 0.20571,-0.0256 0.42582,-0.0399 0.6599,-0.0419 z m 37.72483,0 c 0.23417,0.002 0.4542,0.0168 0.65991,0.0424 0.41142,0.0514 0.76352,0.14818 1.05937,0.28008 0.29604,0.13197 0.53824,0.29745 0.74052,0.49972 0.20227,0.20228 0.36674,0.44341 0.49868,0.73949 0.13196,0.29585 0.22878,0.64794 0.28008,1.05936 0.0518,0.41143 0.0565,0.88037 0.01,1.40405 -0.047,0.5237 -0.14587,1.1002 -0.29972,1.72238 -0.15389,0.62218 -0.36242,1.28841 -0.62425,1.99419 -0.26186,0.70594 -0.57608,1.4498 -0.9431,2.22519 -0.3669,0.77528 -0.78582,1.58125 -1.25263,2.41225 -0.18205,0.32412 -0.37769,0.65419 -0.57413,0.98496 -0.20619,-0.0475 -0.40623,-0.0978 -0.61598,-0.14366 -1.04344,-0.22802 -2.12809,-0.43715 -3.24787,-0.62322 -1.11963,-0.18608 -2.27259,-0.35016 -3.45301,-0.49196 -0.31585,-0.038 -0.6382,-0.0698 -0.95757,-0.10439 -0.0346,-0.31936 -0.0664,-0.64171 -0.10439,-0.95756 -0.14175,-1.18042 -0.30582,-2.33338 -0.49195,-3.45302 -0.18607,-1.11979 -0.3952,-2.20444 -0.62322,-3.24787 -0.0459,-0.20995 -0.0966,-0.4101 -0.14418,-0.6165 0.33078,-0.19645 0.66134,-0.39154 0.98547,-0.5736 0.83099,-0.46682 1.63698,-0.88573 2.41226,-1.25264 0.77537,-0.36701 1.51926,-0.68124 2.22518,-0.9431 0.70579,-0.26178 1.37306,-0.46931 1.99523,-0.62321 0.62218,-0.15385 1.19768,-0.25428 1.72134,-0.30128 0.26185,-0.0235 0.50997,-0.0335 0.74414,-0.0315 z m -26.09815,4.67465 c 0,0 0.0191,0.0117 0.0289,0.0181 h 5.2e-4 c 0.87293,0.55984 1.76333,1.16332 2.66444,1.80764 0.90121,0.64429 1.81097,1.32931 2.72644,2.04846 0.15174,0.1192 0.30444,0.24485 0.45631,0.36587 -0.23196,0.19447 -0.46439,0.38528 -0.69608,0.58342 -0.78355,0.66997 -1.56252,1.36306 -2.3363,2.07016 -1.03976,0.047 -2.07628,0.1011 -3.09696,0.18087 -0.30393,0.0237 -0.60334,0.0536 -0.90486,0.0801 0.0218,-0.1929 0.041,-0.38932 0.0641,-0.58085 0.13885,-1.15589 0.2984,-2.28371 0.48007,-3.37654 0.1816,-1.09287 0.38423,-2.14883 0.60565,-3.16208 0.003,-0.0121 0.008,-0.0351 0.008,-0.0351 z m 14.47096,0 h 5.1e-4 c 0.002,0.012 0.005,0.0225 0.008,0.0346 0.22141,1.01325 0.42405,2.06916 0.60565,3.16208 0.18167,1.09283 0.34123,2.22065 0.48008,3.37654 0.0231,0.19153 0.0423,0.38794 0.0641,0.58084 -0.30151,-0.0265 -0.60041,-0.0559 -0.90433,-0.0796 -1.02069,-0.0798 -2.05769,-0.13387 -3.09749,-0.18087 -0.77376,-0.7071 -1.55274,-1.40019 -2.33629,-2.07016 -0.23169,-0.19814 -0.4636,-0.38895 -0.69557,-0.58342 0.15188,-0.12102 0.30405,-0.24667 0.45579,-0.36587 0.9155,-0.71915 1.82576,-1.40417 2.72697,-2.04846 0.90124,-0.64441 1.79138,-1.24774 2.66443,-1.80764 0.01,-0.006 0.0184,-0.0121 0.0284,-0.0181 z m -117.851726,2.08825 21.055046,9.01185 v 29.34756 l -21.055046,-9.01185 z m 44.755926,0 v 29.34756 l -21.05453,9.01185 v -29.34756 z m 65.86058,3.2582 c 0,0 0.62468,0.51681 0.93637,0.78341 0.26361,0.2254 0.52614,0.4583 0.7891,0.68833 -0.57541,-0.0101 -1.14847,-0.0331 -1.72547,-0.0331 -0.57699,0 -1.15007,0.023 -1.72548,0.0331 0.26296,-0.23003 0.52549,-0.46293 0.7891,-0.68833 0.31174,-0.2666 0.93638,-0.78341 0.93638,-0.78341 z m 0,3.16053 c 4.94975,0 8.96186,4.01193 8.96172,8.96121 -1.4e-4,4.94903 -4.01217,8.96121 -8.96172,8.96121 -4.9496,0 -8.96159,-4.01218 -8.96173,-8.96121 -1.4e-4,-4.94928 4.01193,-8.96121 8.96173,-8.96121 z m -6.34793,0.22324 c -0.40487,0.39117 -0.80801,0.78527 -1.20665,1.18391 -0.39862,0.39862 -0.79231,0.80138 -1.18339,1.20613 0.0225,-0.33426 0.033,-0.67607 0.0589,-1.00769 0.0319,-0.40894 0.0703,-0.8119 0.10749,-1.21595 0.40394,-0.0372 0.80715,-0.0756 1.21594,-0.10749 0.33167,-0.0259 0.67343,-0.0364 1.0077,-0.0589 z m 12.69586,0 c 0.33427,0.0225 0.67601,0.033 1.00769,0.0589 0.40884,0.0319 0.81202,0.0703 1.21595,0.10749 0.0372,0.40405 0.0756,0.80701 0.10748,1.21595 0.0259,0.33162 0.0364,0.67343 0.0589,1.00769 -0.39109,-0.40475 -0.78477,-0.80751 -1.18339,-1.20613 -0.39864,-0.39864 -0.80179,-0.79274 -1.20665,-1.18391 z m -16.66255,0.3452 h 5.2e-4 c -0.0265,0.30153 -0.0559,0.60041 -0.0796,0.90434 -0.0798,1.0207 -0.13382,2.05769 -0.18087,3.09748 -0.70713,0.77378 -1.40019,1.55273 -2.07016,2.33629 -0.19857,0.2322 -0.38956,0.46464 -0.58446,0.69712 -0.12103,-0.15186 -0.24667,-0.30404 -0.36587,-0.45579 -0.71915,-0.91553 -1.40312,-1.82783 -2.04742,-2.72903 -0.6444,-0.90123 -1.24773,-1.79089 -1.80764,-2.66392 -0.006,-0.01 -0.0118,-0.0187 -0.0181,-0.0284 0.0119,-0.003 0.0217,-0.006 0.0336,-0.008 1.01324,-0.22142 2.0692,-0.42405 3.16208,-0.60565 1.09283,-0.18167 2.22169,-0.34174 3.37758,-0.48059 0.19158,-0.023 0.38736,-0.0423 0.58032,-0.0641 z m 20.62872,0 c 0.19295,0.0218 0.38926,0.0411 0.58084,0.0641 1.15589,0.13885 2.28424,0.29892 3.37706,0.48059 1.09288,0.1816 2.14884,0.38423 3.16208,0.60565 0.0119,0.002 0.0222,0.005 0.0341,0.008 -0.006,0.01 -0.0121,0.0184 -0.0181,0.0284 -0.55991,0.87303 -1.16326,1.76269 -1.80765,2.66392 -0.6443,0.9012 -1.32827,1.8135 -2.04742,2.72903 -0.11918,0.15175 -0.24485,0.30393 -0.36587,0.45579 -0.19491,-0.23248 -0.38589,-0.46492 -0.58446,-0.69712 -0.66997,-0.78356 -1.36302,-1.56251 -2.07015,-2.33629 -0.0471,-1.03979 -0.10107,-2.07679 -0.18087,-3.09749 -0.0237,-0.30393 -0.0531,-0.6028 -0.0796,-0.90433 z m -29.53773,1.59318 c 0.10933,0.17467 0.21223,0.34702 0.32504,0.52297 0.57659,0.89906 1.19752,1.81237 1.85777,2.73575 0.66012,0.92334 1.35897,1.8545 2.09341,2.78949 0.19656,0.25024 0.40214,0.50051 0.60358,0.75086 -0.20138,0.25026 -0.40707,0.50069 -0.60358,0.75086 -0.73445,0.93499 -1.43329,1.86619 -2.09341,2.78949 -0.66024,0.92338 -1.27963,1.83829 -1.85622,2.7373 -0.11268,0.17575 -0.21531,0.34797 -0.32453,0.52245 -0.36617,-0.0935 -0.75925,-0.17669 -1.11104,-0.27543 -0.91769,-0.25752 -1.78392,-0.53135 -2.59157,-0.82011 -0.80783,-0.28879 -1.55585,-0.59239 -2.24018,-0.9064 -0.68421,-0.31392 -1.30279,-0.6378 -1.85156,-0.96893 -0.54873,-0.33116 -1.02632,-0.66857 -1.42989,-1.00563 -0.40359,-0.33701 -0.73132,-0.67276 -0.98599,-0.99994 -0.2546,-0.32723 -0.43498,-0.64473 -0.55087,-0.94723 -0.11606,-0.30266 -0.17001,-0.58938 -0.17001,-0.87539 0,-0.28606 0.054,-0.5743 0.17001,-0.87695 0.11589,-0.3025 0.29627,-0.61999 0.55087,-0.94723 0.25467,-0.32717 0.5824,-0.66293 0.98599,-0.99994 0.40357,-0.33705 0.88116,-0.67296 1.42989,-1.00407 0.54877,-0.33112 1.16735,-0.65656 1.85156,-0.97049 0.68433,-0.314 1.43235,-0.61761 2.24018,-0.9064 0.80765,-0.28876 1.67388,-0.5626 2.59157,-0.82011 0.35114,-0.0986 0.74351,-0.18163 1.10898,-0.27492 z m 38.44726,0 c 0.36547,0.0933 0.75784,0.17632 1.10898,0.27492 0.91769,0.25751 1.78392,0.53135 2.59157,0.82011 0.80782,0.28879 1.55585,0.5924 2.24017,0.9064 0.68421,0.31393 1.3028,0.63937 1.85157,0.97049 0.54873,0.33111 1.02632,0.66702 1.42989,1.00407 0.40358,0.33701 0.73131,0.67277 0.98598,0.99994 0.2546,0.32724 0.43498,0.64473 0.55087,0.94723 0.11601,0.30265 0.17002,0.59089 0.17002,0.87695 0,0.28601 -0.0539,0.57273 -0.17002,0.87539 -0.11589,0.3025 -0.29627,0.62 -0.55087,0.94723 -0.25467,0.32718 -0.58239,0.66293 -0.98598,0.99994 -0.40357,0.33706 -0.88116,0.67447 -1.42989,1.00563 -0.54878,0.33113 -1.16736,0.65501 -1.85157,0.96893 -0.68433,0.31401 -1.43235,0.61761 -2.24017,0.9064 -0.80765,0.28876 -1.67388,0.56259 -2.59157,0.82011 -0.35179,0.0987 -0.74488,0.18193 -1.11105,0.27543 -0.10922,-0.17448 -0.21183,-0.3467 -0.32452,-0.52245 -0.57659,-0.89901 -1.19598,-1.81392 -1.85622,-2.7373 -0.66012,-0.9233 -1.35895,-1.8545 -2.09341,-2.78949 -0.19651,-0.25017 -0.40221,-0.5006 -0.60358,-0.75086 0.20144,-0.25035 0.40703,-0.50062 0.60358,-0.75086 0.73444,-0.93499 1.43329,-1.86615 2.09341,-2.78949 0.66026,-0.92338 1.28117,-1.83669 1.85777,-2.73575 0.1128,-0.17595 0.21571,-0.3483 0.32504,-0.52297 z m -29.87363,5.07411 c -0.0101,0.57562 -0.0331,1.14892 -0.0331,1.72548 0,0.57716 0.0229,1.15097 0.0331,1.72702 -0.23065,-0.26326 -0.46403,-0.52599 -0.68988,-0.79013 -0.26641,-0.31152 -0.52421,-0.62352 -0.78341,-0.93534 0.25974,-0.31248 0.51799,-0.62573 0.78496,-0.93793 0.22541,-0.26363 0.45831,-0.52614 0.68833,-0.7891 z m 21.29999,0 c 0.23001,0.26296 0.46292,0.52547 0.68833,0.7891 0.26696,0.3122 0.52523,0.62545 0.78497,0.93793 -0.2592,0.31182 -0.51701,0.62382 -0.78342,0.93534 -0.22584,0.26414 -0.45924,0.52687 -0.68988,0.79013 0.0102,-0.57605 0.0331,-1.14986 0.0331,-1.72702 0,-0.57656 -0.023,-1.14986 -0.0331,-1.72548 z m -23.87813,3.08405 c 0.19433,0.23179 0.38544,0.46352 0.58343,0.69505 0.66996,0.78354 1.36299,1.56251 2.07016,2.33629 0.047,1.03995 0.10109,2.07715 0.18087,3.098 0.0238,0.30461 0.053,0.60421 0.0796,0.90641 -0.19296,-0.0218 -0.38925,-0.0405 -0.58084,-0.0636 -1.15589,-0.13886 -2.28423,-0.30053 -3.37706,-0.48214 -1.09293,-0.1816 -2.14884,-0.38423 -3.16208,-0.60565 -0.0119,-0.003 -0.0222,-0.006 -0.0341,-0.008 0.006,-0.01 0.0118,-0.0198 0.0181,-0.0295 0.55991,-0.87304 1.16323,-1.7632 1.80764,-2.66443 0.64429,-0.90121 1.3293,-1.81197 2.04846,-2.72749 0.1191,-0.15164 0.24491,-0.30299 0.36586,-0.45475 z m 26.45627,0 c 0.12102,0.15186 0.24668,0.30352 0.36587,0.45527 0.71917,0.91551 1.40415,1.82627 2.04845,2.72748 0.6444,0.90123 1.24774,1.7914 1.80765,2.66444 0.006,0.01 0.0121,0.0189 0.0181,0.0289 -0.0119,0.002 -0.0222,0.005 -0.0341,0.008 -1.01324,0.22142 -2.06919,0.42405 -3.16208,0.60565 -1.09283,0.18164 -2.22117,0.34328 -3.37706,0.48214 -0.1916,0.0231 -0.38787,0.0418 -0.58084,0.0636 0.0266,-0.3022 0.0558,-0.60179 0.0796,-0.9064 0.0798,-1.02085 0.13387,-2.05806 0.18087,-3.09801 0.70718,-0.77375 1.40019,-1.55275 2.07015,-2.33629 0.19791,-0.23143 0.3892,-0.46285 0.58343,-0.69453 z m -21.9661,4.98833 c 0.39107,0.40476 0.78477,0.80751 1.18339,1.20613 0.39933,0.39932 0.80315,0.79413 1.20871,1.18597 -0.33495,-0.0223 -0.6774,-0.0324 -1.00976,-0.0584 -0.40861,-0.0319 -0.81166,-0.0703 -1.21543,-0.10749 -0.0373,-0.40462 -0.076,-0.80852 -0.108,-1.21801 -0.0259,-0.33185 -0.0364,-0.67377 -0.0589,-1.00821 z m 17.47594,0 c -0.0225,0.33444 -0.033,0.67636 -0.0589,1.00821 -0.032,0.40949 -0.0707,0.81339 -0.108,1.21801 -0.40377,0.0372 -0.80677,0.0756 -1.21543,0.10749 -0.33236,0.026 -0.67482,0.0361 -1.00976,0.0584 0.40555,-0.39184 0.80939,-0.78665 1.20872,-1.18597 0.39862,-0.39862 0.79232,-0.80137 1.18339,-1.20613 z m -27.15649,2.43344 c 0.20668,0.0476 0.40726,0.0982 0.61754,0.14418 1.04344,0.22802 2.12807,0.43509 3.24786,0.62115 1.11968,0.18613 2.27255,0.35015 3.45302,0.49196 0.31594,0.038 0.6381,0.0698 0.95756,0.10439 0.0346,0.31931 0.0664,0.64171 0.10439,0.95756 0.1418,1.18047 0.30583,2.33334 0.49196,3.45302 0.18607,1.11979 0.3952,2.20442 0.62322,3.24786 0.0459,0.20974 0.0962,0.40979 0.14366,0.61599 -0.33048,0.19623 -0.66054,0.39116 -0.98444,0.57309 -0.831,0.46681 -1.63749,0.88624 -2.41277,1.25315 -0.77543,0.36701 -1.51926,0.68125 -2.22519,0.9431 -0.70579,0.26184 -1.37201,0.47035 -1.99419,0.62425 -0.62218,0.15384 -1.19872,0.25269 -1.72238,0.29972 -0.52369,0.0471 -0.99266,0.042 -1.40404,-0.01 -0.41142,-0.0514 -0.76352,-0.14812 -1.05937,-0.28008 -0.29608,-0.13194 -0.53722,-0.29692 -0.73949,-0.4992 -0.20228,-0.20227 -0.36774,-0.44396 -0.49971,-0.74001 -0.13195,-0.29585 -0.22872,-0.64793 -0.28009,-1.05936 -0.0513,-0.41142 -0.0572,-0.88089 -0.0103,-1.40457 0.047,-0.5237 0.14795,-1.09814 0.30179,-1.72031 0.1539,-0.62218 0.36087,-1.28995 0.6227,-1.99574 0.26186,-0.70593 0.57607,-1.44976 0.94309,-2.22519 0.36691,-0.77528 0.78582,-1.58178 1.25264,-2.41277 0.1815,-0.32314 0.37682,-0.65216 0.57257,-0.98185 z m 36.83703,0 c 0.19575,0.32969 0.39108,0.65871 0.57258,0.98185 0.46682,0.83099 0.88573,1.6375 1.25263,2.41278 0.36702,0.77543 0.68124,1.51925 0.9431,2.22518 0.26183,0.70579 0.4688,1.37357 0.6227,1.99575 0.15384,0.62217 0.25479,1.19661 0.30179,1.72031 0.0469,0.52363 0.041,0.99314 -0.0103,1.40456 -0.0514,0.41143 -0.14813,0.76352 -0.28008,1.05937 -0.13197,0.29605 -0.29743,0.53773 -0.49971,0.74 -0.20227,0.20228 -0.44341,0.36726 -0.73949,0.4992 -0.29584,0.13196 -0.64795,0.22868 -1.05937,0.28008 -0.41143,0.0516 -0.88036,0.0574 -1.40405,0.0103 -0.52367,-0.047 -1.10019,-0.14588 -1.72237,-0.29972 -0.62218,-0.1539 -1.28841,-0.36241 -1.9942,-0.62425 -0.70593,-0.26185 -1.4498,-0.57609 -2.22518,-0.9431 -0.77528,-0.36691 -1.58178,-0.78634 -2.41278,-1.25315 -0.3239,-0.18193 -0.65395,-0.37686 -0.98443,-0.57309 0.0475,-0.2062 0.0978,-0.40625 0.14366,-0.61599 0.22802,-1.04344 0.43715,-2.12807 0.62322,-3.24786 0.18614,-1.11968 0.3502,-2.27255 0.49195,-3.45302 0.038,-0.31585 0.0698,-0.63825 0.10439,-0.95756 0.31946,-0.0346 0.64163,-0.0664 0.95757,-0.10439 1.18043,-0.14181 2.33339,-0.30583 3.45301,-0.49196 1.11978,-0.18606 2.20444,-0.39313 3.24787,-0.62115 0.21028,-0.046 0.41084,-0.0966 0.61753,-0.14418 z m -26.81076,1.53324 c 0.30126,0.0265 0.60014,0.0559 0.90382,0.0796 1.021,0.0798 2.05834,0.13386 3.09852,0.18087 0.77339,0.70685 1.55207,1.40001 2.33525,2.06964 0.23223,0.19859 0.46464,0.38957 0.69712,0.58446 -0.15187,0.12103 -0.30405,0.24667 -0.45579,0.36587 -0.91553,0.71915 -1.82783,1.40261 -2.72903,2.0469 -0.90123,0.64441 -1.79089,1.24775 -2.66392,1.80765 -0.01,0.006 -0.0192,0.0118 -0.0289,0.0181 -0.003,-0.0116 -0.006,-0.0215 -0.008,-0.0331 -0.22142,-1.01324 -0.42405,-2.06915 -0.60565,-3.16208 -0.18167,-1.09283 -0.34122,-2.22117 -0.48007,-3.37706 -0.023,-0.19159 -0.0418,-0.38788 -0.0636,-0.58084 z m 16.7845,0 h 5.2e-4 c -0.0218,0.19296 -0.0406,0.38925 -0.0636,0.58084 -0.13885,1.15589 -0.29893,2.28423 -0.4806,3.37706 -0.1816,1.09293 -0.38422,2.14884 -0.60564,3.16208 -0.002,0.0116 -0.005,0.0215 -0.008,0.0331 -0.01,-0.006 -0.0184,-0.0121 -0.0284,-0.0181 -0.87303,-0.5599 -1.76269,-1.16324 -2.66392,-1.80765 -0.9012,-0.64429 -1.81352,-1.32775 -2.72904,-2.0469 -0.15174,-0.1192 -0.30391,-0.24484 -0.45578,-0.36587 0.23248,-0.19489 0.46488,-0.38587 0.69711,-0.58446 0.78318,-0.66963 1.56182,-1.36279 2.33526,-2.06964 1.04019,-0.047 2.07752,-0.10107 3.09852,-0.18087 0.30368,-0.0237 0.60256,-0.0531 0.90382,-0.0796 z m -10.1198,0.3359 c 0.57609,0.0101 1.14987,0.0336 1.72755,0.0336 0.57769,0 1.15145,-0.0235 1.72754,-0.0336 -0.26314,0.2305 -0.5257,0.46366 -0.78961,0.68936 -0.31214,0.2669 -0.62497,0.52474 -0.93742,0.78445 l -5.1e-4,-5.2e-4 -5.2e-4,5.2e-4 c -0.31244,-0.25971 -0.62527,-0.51755 -0.93741,-0.78445 -0.26396,-0.2257 -0.52649,-0.45886 -0.78962,-0.68936 z m 1.72703,3.69331 5.2e-4,5.2e-4 5.1e-4,-5.2e-4 c 0.25027,0.20138 0.5007,0.40657 0.75086,0.60307 0.935,0.73445 1.86616,1.43381 2.7895,2.09393 0.92338,0.6602 1.8367,1.28066 2.73575,1.85725 0.176,0.11284 0.34823,0.21619 0.52296,0.32556 -0.0933,0.36544 -0.17632,0.75777 -0.27492,1.10897 -0.25751,0.91769 -0.53134,1.78444 -0.8201,2.59209 -0.28878,0.80783 -0.59241,1.55585 -0.90641,2.24018 -0.31388,0.68421 -0.63988,1.30279 -0.971,1.85156 -0.33116,0.54873 -0.66651,1.02632 -1.00355,1.42989 -0.33702,0.40359 -0.67277,0.73132 -0.99994,0.98599 -0.32723,0.2546 -0.64473,0.43498 -0.94723,0.55087 -0.30246,0.11592 -0.59055,0.17001 -0.87643,0.17001 -0.28589,0 -0.57396,-0.0541 -0.87643,-0.17001 -0.3025,-0.11589 -0.61999,-0.29627 -0.94723,-0.55087 -0.32717,-0.25467 -0.66293,-0.5824 -0.99994,-0.98599 -0.33705,-0.40357 -0.6724,-0.88116 -1.00356,-1.42989 -0.33112,-0.54877 -0.65707,-1.16735 -0.971,-1.85156 -0.314,-0.68433 -0.61761,-1.43235 -0.9064,-2.24018 -0.28876,-0.80765 -0.5626,-1.6744 -0.82011,-2.59209 -0.0986,-0.3512 -0.18161,-0.74353 -0.27492,-1.10897 0.17473,-0.10937 0.34697,-0.21272 0.52297,-0.32556 0.89906,-0.57659 1.81237,-1.19705 2.73575,-1.85725 0.92335,-0.66012 1.8545,-1.35948 2.78949,-2.09393 0.25016,-0.1965 0.5006,-0.40169 0.75086,-0.60307 z M 63.015275,196.78695 H 222.52802 c -0.37114,1.87259 -0.72865,3.75931 -1.16427,5.56452 -0.64132,2.65765 -1.35139,5.24098 -2.12907,7.74837 -0.7729,2.4918 -1.61213,4.9073 -2.51509,7.24607 H 68.823706 c -0.902961,-2.33877 -1.742205,-4.75427 -2.515092,-7.24607 -0.777675,-2.50739 -1.48776,-5.09072 -2.129069,-7.74837 -0.435616,-1.80521 -0.793128,-3.69193 -1.16427,-5.56452 z m 35.345646,3.49281 -22.205363,13.57334 h 44.410722 z m 22.205359,13.57334 h 44.41073 l -22.20536,-13.57334 z m 44.41073,0 h 44.41073 l -22.20537,-13.57334 z m -65.993905,7.60212 10.947135,10.94558 10.94714,-10.94558 10.94713,10.94558 10.94714,-10.94558 10.94713,10.94558 10.94714,-10.94558 10.94713,10.94558 10.94714,-10.94558 12.76976,12.76769 -1.85725,1.62884 c -0.18899,0.16591 -0.38147,0.32634 -0.57619,0.48214 -0.19582,0.15674 -0.39307,0.30904 -0.59376,0.45527 -0.20018,0.14587 -0.40489,0.28786 -0.6134,0.42582 -0.20709,0.13702 -0.41612,0.26895 -0.6289,0.39636 -0.21324,0.12767 -0.42914,0.25024 -0.64648,0.36742 -0.21675,0.11687 -0.43813,0.22941 -0.66197,0.33744 -0.22208,0.10718 -0.44631,0.20946 -0.67386,0.30696 -0.22789,0.0977 -0.45728,0.19019 -0.68782,0.27699 -0.23303,0.0877 -0.46635,0.16853 -0.69918,0.24443 -0.23555,0.0769 -0.47129,0.14907 -0.709,0.21497 -0.23869,0.0662 -0.47807,0.12608 -0.71882,0.18138 -0.23891,0.0548 -0.48184,0.10538 -0.72812,0.15038 -0.24369,0.0445 -0.48792,0.0837 -0.73432,0.11731 -0.24657,0.0337 -0.49507,0.0612 -0.74259,0.0837 -0.24611,0.0224 -0.49329,0.0398 -0.74414,0.0512 -0.25435,0.0116 -0.50593,0.0176 -0.75396,0.0176 -0.24802,0 -0.4996,-0.006 -0.75396,-0.0176 -0.25084,-0.0114 -0.49803,-0.0288 -0.74414,-0.0512 -0.24752,-0.0225 -0.49603,-0.05 -0.74259,-0.0837 -0.24641,-0.0336 -0.49013,-0.0728 -0.73381,-0.11731 -0.24628,-0.045 -0.48921,-0.0956 -0.72812,-0.15038 -0.24074,-0.0553 -0.48013,-0.11518 -0.71882,-0.18138 -0.2377,-0.0659 -0.47346,-0.13807 -0.709,-0.21497 -0.23284,-0.0759 -0.46615,-0.15673 -0.69918,-0.24443 -0.23054,-0.0868 -0.45992,-0.17929 -0.68781,-0.27699 -0.22755,-0.0975 -0.45179,-0.19978 -0.67386,-0.30696 -0.22384,-0.10803 -0.44523,-0.22057 -0.66198,-0.33744 -0.21734,-0.11718 -0.43322,-0.23975 -0.64647,-0.36742 -0.21281,-0.12741 -0.42182,-0.25934 -0.6289,-0.39636 -0.20851,-0.13796 -0.41322,-0.27995 -0.6134,-0.42582 -0.20069,-0.14623 -0.39795,-0.29853 -0.59376,-0.45527 -0.19472,-0.1558 -0.38722,-0.31623 -0.5762,-0.48214 l -0.0346,-0.0305 -0.0351,0.0305 c -0.18899,0.16591 -0.38147,0.32634 -0.57619,0.48214 -0.19582,0.15674 -0.39307,0.30904 -0.59376,0.45527 -0.20018,0.14587 -0.40489,0.28786 -0.6134,0.42582 -0.20709,0.13702 -0.4161,0.26895 -0.62891,0.39636 -0.21324,0.12767 -0.42913,0.25024 -0.64647,0.36742 -0.21675,0.11687 -0.43813,0.22941 -0.66197,0.33744 -0.22208,0.10718 -0.44631,0.20946 -0.67386,0.30696 -0.22789,0.0977 -0.45728,0.19019 -0.68782,0.27699 -0.23303,0.0877 -0.46634,0.16853 -0.69918,0.24443 -0.23555,0.0769 -0.47129,0.14907 -0.709,0.21497 -0.23869,0.0662 -0.47807,0.12608 -0.71882,0.18138 -0.23891,0.0548 -0.48184,0.10538 -0.72812,0.15038 -0.24369,0.0445 -0.48792,0.0837 -0.73432,0.11731 -0.24657,0.0337 -0.49507,0.0612 -0.74259,0.0837 -0.24611,0.0224 -0.49329,0.0398 -0.74414,0.0512 -0.25435,0.0116 -0.50593,0.0176 -0.75396,0.0176 -0.24802,0 -0.4996,-0.006 -0.75396,-0.0176 -0.25084,-0.0114 -0.49803,-0.0288 -0.74414,-0.0512 -0.24752,-0.0225 -0.49603,-0.05 -0.74259,-0.0837 -0.24641,-0.0336 -0.49064,-0.0728 -0.73432,-0.11731 -0.24628,-0.045 -0.48922,-0.0956 -0.72813,-0.15038 -0.24071,-0.0553 -0.48012,-0.11518 -0.71881,-0.18138 -0.2377,-0.0659 -0.47349,-0.13807 -0.709,-0.21497 -0.23284,-0.0759 -0.46616,-0.15673 -0.69919,-0.24443 -0.23054,-0.0868 -0.45992,-0.17929 -0.68781,-0.27699 -0.22755,-0.0975 -0.45179,-0.19978 -0.67386,-0.30696 -0.22384,-0.10803 -0.44471,-0.22057 -0.66146,-0.33744 -0.21734,-0.11718 -0.43322,-0.23975 -0.64647,-0.36742 -0.21281,-0.12741 -0.42182,-0.25934 -0.6289,-0.39636 -0.20851,-0.13796 -0.41322,-0.27995 -0.6134,-0.42582 -0.20069,-0.14623 -0.39796,-0.29853 -0.59377,-0.45527 -0.19472,-0.1558 -0.38721,-0.31623 -0.57619,-0.48214 l -0.0346,-0.0305 -0.0351,0.0305 c -0.18898,0.16591 -0.38147,0.32634 -0.57619,0.48214 -0.19582,0.15674 -0.39307,0.30904 -0.59377,0.45527 -0.20015,0.14587 -0.40488,0.28786 -0.61339,0.42582 -0.20709,0.13702 -0.4161,0.26895 -0.62891,0.39636 -0.21323,0.12767 -0.42912,0.25024 -0.64647,0.36742 -0.21674,0.11687 -0.43814,0.22941 -0.66197,0.33744 -0.22208,0.10718 -0.44631,0.20946 -0.67386,0.30696 -0.22789,0.0977 -0.45728,0.19019 -0.68782,0.27699 -0.23303,0.0877 -0.46634,0.16853 -0.69918,0.24443 -0.23555,0.0769 -0.4713,0.14907 -0.709,0.21497 -0.23869,0.0662 -0.47807,0.12608 -0.71882,0.18138 -0.23891,0.0548 -0.48184,0.10538 -0.72812,0.15038 -0.24369,0.0445 -0.48792,0.0837 -0.73432,0.11731 -0.24657,0.0337 -0.49507,0.0612 -0.74259,0.0837 -0.24611,0.0224 -0.49329,0.0398 -0.74414,0.0512 -0.25435,0.0116 -0.50593,0.0176 -0.75396,0.0176 -0.24802,0 -0.4996,-0.006 -0.75396,-0.0176 -0.25084,-0.0114 -0.49804,-0.0288 -0.74414,-0.0512 -0.24752,-0.0225 -0.49604,-0.05 -0.74259,-0.0837 -0.24641,-0.0336 -0.49065,-0.0728 -0.73433,-0.11731 -0.24625,-0.045 -0.48921,-0.0956 -0.72812,-0.15038 -0.24074,-0.0553 -0.48013,-0.11518 -0.71882,-0.18138 -0.23767,-0.0659 -0.47346,-0.13807 -0.709,-0.21497 -0.23284,-0.0759 -0.46615,-0.15673 -0.69918,-0.24443 -0.23054,-0.0868 -0.45992,-0.17929 -0.68781,-0.27699 -0.22755,-0.0975 -0.45179,-0.19978 -0.67386,-0.30696 -0.22384,-0.10803 -0.44523,-0.22057 -0.66198,-0.33744 -0.21734,-0.11718 -0.43322,-0.23975 -0.64647,-0.36742 -0.21281,-0.12741 -0.42182,-0.25934 -0.6289,-0.39636 -0.20851,-0.13796 -0.41322,-0.27995 -0.6134,-0.42582 -0.20069,-0.14623 -0.39795,-0.29853 -0.59376,-0.45527 -0.19472,-0.1558 -0.38722,-0.31623 -0.5762,-0.48214 l -0.0346,-0.0305 -0.0346,0.0305 c -0.18899,0.16591 -0.38147,0.32634 -0.57619,0.48214 -0.19582,0.15674 -0.39308,0.30904 -0.59377,0.45527 -0.20018,0.14587 -0.40489,0.28786 -0.6134,0.42582 -0.20706,0.13702 -0.41609,0.26895 -0.6289,0.39636 -0.21324,0.12767 -0.42913,0.25024 -0.64647,0.36742 -0.21675,0.11687 -0.43813,0.22941 -0.66197,0.33744 -0.22207,0.10718 -0.44632,0.20946 -0.67387,0.30696 -0.22789,0.0977 -0.45727,0.19019 -0.68781,0.27699 -0.23303,0.0877 -0.46634,0.16853 -0.69918,0.24443 -0.23555,0.0769 -0.47129,0.14907 -0.709,0.21497 -0.23868,0.0662 -0.47808,0.12608 -0.71882,0.18138 -0.23891,0.0548 -0.48184,0.10538 -0.72812,0.15038 -0.24369,0.0445 -0.48792,0.0837 -0.73432,0.11731 -0.24658,0.0337 -0.49507,0.0612 -0.74259,0.0837 -0.24611,0.0224 -0.49329,0.0398 -0.74414,0.0512 -0.25435,0.0116 -0.50593,0.0176 -0.75396,0.0176 -0.24802,0 -0.4996,-0.006 -0.75396,-0.0176 -0.25084,-0.0114 -0.49804,-0.0288 -0.74414,-0.0512 -0.24753,-0.0225 -0.49603,-0.05 -0.74259,-0.0837 -0.24641,-0.0336 -0.49065,-0.0728 -0.73433,-0.11731 -0.24628,-0.045 -0.48921,-0.0956 -0.72812,-0.15038 -0.24074,-0.0553 -0.48012,-0.11518 -0.71882,-0.18138 -0.2377,-0.0659 -0.47346,-0.13807 -0.709,-0.21497 -0.23283,-0.0759 -0.46615,-0.15673 -0.69918,-0.24443 -0.23055,-0.0868 -0.45992,-0.17929 -0.68781,-0.27699 -0.22756,-0.0975 -0.45179,-0.19978 -0.67386,-0.30696 -0.22384,-0.10803 -0.44523,-0.22057 -0.66198,-0.33744 -0.21734,-0.11718 -0.43322,-0.23975 -0.64647,-0.36742 -0.21281,-0.12741 -0.42182,-0.25934 -0.6289,-0.39636 -0.20851,-0.13796 -0.41322,-0.27995 -0.6134,-0.42582 -0.20069,-0.14623 -0.39795,-0.29853 -0.59376,-0.45527 -0.19472,-0.1558 -0.38722,-0.31623 -0.5762,-0.48214 l -0.0346,-0.0305 -0.0346,0.0305 c -0.18899,0.16591 -0.38147,0.32634 -0.57619,0.48214 -0.19582,0.15674 -0.39308,0.30904 -0.59377,0.45527 -0.20018,0.14587 -0.40489,0.28786 -0.6134,0.42582 -0.20709,0.13702 -0.4161,0.26895 -0.6289,0.39636 -0.21324,0.12767 -0.42913,0.25024 -0.64647,0.36742 -0.21675,0.11687 -0.43814,0.22941 -0.66198,0.33744 -0.22208,0.10718 -0.44631,0.20946 -0.67386,0.30696 -0.22789,0.0977 -0.45727,0.19019 -0.68781,0.27699 -0.23303,0.0877 -0.46634,0.16853 -0.69918,0.24443 -0.23555,0.0769 -0.47129,0.14907 -0.709,0.21497 -0.23869,0.0662 -0.47807,0.12608 -0.71882,0.18138 -0.23891,0.0548 -0.48184,0.10538 -0.72812,0.15038 -0.24369,0.0445 -0.48792,0.0837 -0.73432,0.11731 -0.24657,0.0337 -0.4951,0.0612 -0.74259,0.0837 -0.24611,0.0224 -0.4933,0.0398 -0.744145,0.0512 -0.254355,0.0116 -0.505935,0.0176 -0.75396,0.0176 -0.248022,0 -0.499606,-0.006 -0.753959,-0.0176 -0.250845,-0.0114 -0.498033,-0.0288 -0.74414,-0.0512 -0.247524,-0.0225 -0.496025,-0.05 -0.742591,-0.0837 -0.246404,-0.0336 -0.490635,-0.0728 -0.734322,-0.11731 -0.246275,-0.045 -0.489216,-0.0956 -0.728121,-0.15038 -0.240743,-0.0553 -0.48013,-0.11518 -0.718819,-0.18138 -0.237704,-0.0659 -0.473455,-0.13807 -0.709,-0.21497 -0.23284,-0.0759 -0.466151,-0.15673 -0.699183,-0.24443 -0.230534,-0.0868 -0.459923,-0.17929 -0.687813,-0.27699 -0.227547,-0.0975 -0.451789,-0.19978 -0.673861,-0.30696 -0.223838,-0.10803 -0.445228,-0.22057 -0.661975,-0.33744 -0.217337,-0.11718 -0.433224,-0.23975 -0.646472,-0.36742 -0.212812,-0.12741 -0.421821,-0.25934 -0.628902,-0.39636 -0.208514,-0.13796 -0.413215,-0.27995 -0.613399,-0.42582 -0.200683,-0.14623 -0.397949,-0.29853 -0.593763,-0.45527 -0.194723,-0.1558 -0.387205,-0.31623 -0.576192,-0.48214 l -1.857251,-1.62884 z m 0,6.54688 -5.813081,5.81205 c 0.05245,0.0293 0.103619,0.0613 0.156579,0.0899 0.157913,0.0851 0.317406,0.16556 0.476457,0.24236 0.160818,0.0776 0.321452,0.15086 0.485242,0.22066 0.163787,0.0697 0.328076,0.13667 0.49506,0.19947 0.164487,0.0619 0.333083,0.11982 0.502812,0.17622 0.169725,0.0564 0.339074,0.10629 0.511079,0.15399 0.171029,0.0474 0.345196,0.0907 0.519349,0.13074 0.175992,0.0403 0.350282,0.0774 0.523482,0.10904 0.175788,0.0321 0.35213,0.0601 0.529166,0.0842 0.176877,0.0242 0.35402,0.0442 0.533301,0.0605 0.18005,0.0164 0.359398,0.0292 0.537435,0.0372 h 0.0015 0.0021 c 0.175196,0.008 0.355316,0.0119 0.539501,0.0119 0.184188,0 0.364306,-0.004 0.539502,-0.0119 h 0.0021 0.0016 c 0.178039,-0.008 0.357379,-0.0208 0.537431,-0.0372 0.17928,-0.0163 0.35643,-0.0363 0.5333,-0.0605 0.17704,-0.0241 0.35338,-0.0521 0.52917,-0.0842 0.1732,-0.0316 0.34749,-0.0687 0.52348,-0.10904 0.17416,-0.04 0.34832,-0.0833 0.51935,-0.13074 0.17201,-0.0477 0.34135,-0.0976 0.51108,-0.15399 0.16973,-0.0564 0.33833,-0.11432 0.50281,-0.17622 0.16699,-0.0628 0.33127,-0.12977 0.49506,-0.19947 0.16379,-0.0698 0.32443,-0.14306 0.48524,-0.22066 0.15906,-0.0768 0.31855,-0.15726 0.47646,-0.24236 0.053,-0.0286 0.10408,-0.0606 0.15658,-0.0899 z m 21.894275,0 -5.81257,5.81205 c 0.0525,0.0293 0.10358,0.0613 0.15658,0.0899 0.15791,0.0851 0.31741,0.16556 0.47646,0.24236 0.16082,0.0776 0.32145,0.15086 0.48524,0.22066 0.16379,0.0697 0.32808,0.13667 0.49506,0.19947 0.16449,0.0619 0.33308,0.11982 0.50281,0.17622 0.16972,0.0564 0.33908,0.10629 0.51108,0.15399 0.17103,0.0474 0.34519,0.0907 0.51935,0.13074 0.17599,0.0403 0.35029,0.0774 0.52348,0.10904 0.1758,0.0321 0.35213,0.0601 0.52917,0.0842 0.17687,0.0242 0.35402,0.0442 0.5333,0.0605 0.18005,0.0164 0.35939,0.0292 0.53743,0.0372 h 0.002 0.002 c 0.17519,0.008 0.35531,0.0119 0.5395,0.0119 0.18418,0 0.36431,-0.004 0.53951,-0.0119 h 0.002 10e-4 c 0.17803,-0.008 0.35737,-0.0208 0.53743,-0.0372 0.17927,-0.0163 0.35643,-0.0363 0.5333,-0.0605 0.17704,-0.0241 0.35338,-0.0521 0.52917,-0.0842 0.1732,-0.0316 0.34749,-0.0687 0.52348,-0.10904 0.17416,-0.04 0.34832,-0.0833 0.51935,-0.13074 0.17201,-0.0477 0.34135,-0.0976 0.51108,-0.15399 0.16973,-0.0564 0.33833,-0.11432 0.50281,-0.17622 0.16699,-0.0628 0.33127,-0.12977 0.49506,-0.19947 0.16379,-0.0698 0.32443,-0.14306 0.48524,-0.22066 0.15906,-0.0768 0.31855,-0.15726 0.47646,-0.24236 0.053,-0.0286 0.10408,-0.0606 0.15658,-0.0899 z m 21.89427,0 -5.81257,5.81205 c 0.0524,0.0293 0.10358,0.0613 0.15658,0.0899 0.15791,0.0851 0.31741,0.16556 0.47646,0.24236 0.16082,0.0776 0.32145,0.15086 0.48524,0.22066 0.16379,0.0697 0.32808,0.13667 0.49506,0.19947 0.16449,0.0619 0.33308,0.11982 0.50281,0.17622 0.16972,0.0564 0.33908,0.10629 0.51108,0.15399 0.17102,0.0474 0.34519,0.0907 0.51935,0.13074 0.17599,0.0403 0.35028,0.0774 0.52348,0.10904 0.17578,0.0321 0.35214,0.0601 0.52917,0.0842 0.17687,0.0242 0.35402,0.0442 0.5333,0.0605 0.18004,0.0164 0.35938,0.0292 0.53743,0.0372 h 0.002 0.002 c 0.17519,0.008 0.35531,0.0119 0.5395,0.0119 0.18418,0 0.36431,-0.004 0.53951,-0.0119 h 0.002 0.001 c 0.17803,-0.008 0.35737,-0.0208 0.53743,-0.0372 0.17927,-0.0163 0.35643,-0.0363 0.5333,-0.0605 0.17704,-0.0241 0.35338,-0.0521 0.52917,-0.0842 0.1732,-0.0316 0.34749,-0.0687 0.52348,-0.10904 0.17416,-0.04 0.34832,-0.0833 0.51935,-0.13074 0.17201,-0.0477 0.34135,-0.0976 0.51108,-0.15399 0.16973,-0.0564 0.33833,-0.11432 0.50281,-0.17622 0.16699,-0.0628 0.33127,-0.12977 0.49506,-0.19947 0.16379,-0.0698 0.32443,-0.14306 0.48524,-0.22066 0.15906,-0.0768 0.31855,-0.15726 0.47646,-0.24236 0.053,-0.0286 0.10408,-0.0606 0.15658,-0.0899 z m 21.89427,0 -5.81257,5.81205 c 0.0524,0.0293 0.10358,0.0613 0.15658,0.0899 0.15791,0.0851 0.31741,0.16556 0.47646,0.24236 0.16082,0.0776 0.32145,0.15086 0.48524,0.22066 0.16379,0.0697 0.32808,0.13667 0.49506,0.19947 0.16449,0.0619 0.33308,0.11982 0.50281,0.17622 0.16972,0.0564 0.33908,0.10629 0.51108,0.15399 0.17103,0.0474 0.34519,0.0907 0.51935,0.13074 0.17599,0.0403 0.35028,0.0774 0.52348,0.10904 0.17579,0.0321 0.35214,0.0601 0.52917,0.0842 0.17688,0.0242 0.35402,0.0442 0.5333,0.0605 0.18005,0.0164 0.3594,0.0292 0.53744,0.0372 h 0.002 0.002 c 0.17519,0.008 0.35531,0.0119 0.5395,0.0119 0.18418,0 0.36431,-0.004 0.53951,-0.0119 h 0.002 0.001 c 0.17803,-0.008 0.35737,-0.0208 0.53743,-0.0372 0.17927,-0.0163 0.35643,-0.0363 0.5333,-0.0605 0.17704,-0.0241 0.35338,-0.0521 0.52917,-0.0842 0.1732,-0.0316 0.34749,-0.0687 0.52348,-0.10904 0.17416,-0.04 0.34832,-0.0833 0.51935,-0.13074 0.17201,-0.0477 0.34135,-0.0976 0.51108,-0.15399 0.16973,-0.0564 0.33834,-0.11432 0.50281,-0.17622 0.16699,-0.0628 0.33127,-0.12977 0.49506,-0.19947 0.16378,-0.0698 0.32443,-0.14306 0.48524,-0.22066 0.15906,-0.0768 0.31856,-0.15726 0.47646,-0.24236 0.053,-0.0286 0.10408,-0.0606 0.15658,-0.0899 z m 21.89427,0 -5.81205,5.81205 c 0.0524,0.0293 0.10358,0.0613 0.15658,0.0899 0.15791,0.0851 0.31741,0.16556 0.47646,0.24236 0.16082,0.0776 0.32145,0.15086 0.48524,0.22066 0.16378,0.0697 0.32808,0.13667 0.49506,0.19947 0.16449,0.0619 0.33308,0.11982 0.50281,0.17622 0.16972,0.0564 0.33908,0.10629 0.51108,0.15399 0.17103,0.0474 0.3452,0.0907 0.51935,0.13074 0.17599,0.0403 0.35028,0.0774 0.52348,0.10904 0.17579,0.0321 0.35214,0.0601 0.52917,0.0842 0.17688,0.0242 0.35402,0.0442 0.5333,0.0605 0.18005,0.0164 0.35939,0.0292 0.53743,0.0372 h 0.002 0.002 c 0.17519,0.008 0.35531,0.0119 0.5395,0.0119 0.18418,0 0.36475,-0.004 0.5426,-0.0119 0.17787,-0.008 0.35686,-0.0208 0.53692,-0.0372 0.17927,-0.0163 0.35643,-0.0363 0.5333,-0.0605 0.17704,-0.0241 0.35338,-0.0521 0.52917,-0.0842 0.1732,-0.0316 0.34749,-0.0687 0.52348,-0.10904 0.17416,-0.04 0.34832,-0.0833 0.51935,-0.13074 0.17201,-0.0477 0.34135,-0.0976 0.51108,-0.15399 0.16973,-0.0564 0.33833,-0.11432 0.50281,-0.17622 0.16699,-0.0628 0.33127,-0.12977 0.49506,-0.19947 0.16379,-0.0698 0.32443,-0.14306 0.48524,-0.22066 0.15906,-0.0768 0.31855,-0.15726 0.47646,-0.24236 0.053,-0.0286 0.10408,-0.0606 0.15658,-0.0899 z m -110.852666,3.23081 c 1.530383,2.56743 3.20869,5.047 5.022949,7.42229 1.813979,2.37508 3.764402,4.64632 5.838403,6.79803 0.783368,0.81266 1.584532,1.60844 2.402437,2.38642 0.289907,0.0924 0.494446,0.0737 0.6134,-0.0527 0.28404,-0.47705 -1.066578,-1.58721 -2.391069,-2.93574 -1.643062,-1.673 -3.202791,-3.67617 -1.900659,-4.78162 0.280624,-0.23823 0.652299,-0.28804 1.114661,-0.15864 0.0871,0.18194 0.174759,0.36362 0.263549,0.54518 -0.261376,-0.10609 -2.192332,-0.14074 0.258899,2.45515 0.36943,0.38356 0.744095,0.75978 1.104326,1.12913 1.658627,1.70048 3.029193,3.25788 2.017448,4.80798 0.121131,0.11093 0.24249,0.22108 0.364319,0.33124 0.166388,0.57755 0.340596,1.15602 0.522965,1.73426 -1.7543,-1.5249 -3.441336,-3.12729 -5.054472,-4.80074 -0.193868,-0.20113 -0.386532,-0.4035 -0.578259,-0.60668 l -3.221509,3.04013 c -0.193039,0.18216 -0.176593,0.39493 0.05374,0.63613 0.08004,0.0838 0.178236,0.17146 0.290938,0.26045 0.926124,0.73126 2.766884,1.48009 3.610632,0.85318 -0.575882,-0.29214 -1.614872,-1.59099 -0.90227,-2.29237 0.991,-0.97539 4.518589,2.13984 3.079915,3.73414 -0.486029,0.53861 -1.329185,0.73352 -2.538346,0.5395 0.675513,1.36452 -0.679531,4.32899 -4.471045,0.53589 -0.374716,-0.37487 -0.72294,-0.77596 -1.035079,-1.19528 -1.64669,-2.21233 -2.214723,-4.82052 -0.617533,-6.67814 0.101598,0.26965 0.204681,0.53937 0.309541,0.80873 -0.749901,1.50487 -0.401665,3.23097 1.148251,5.05913 0.167184,0.19717 0.348208,0.39532 0.543119,0.59376 3.011597,3.06612 3.85293,1.68656 2.94349,0.62477 -1.127615,-0.38775 -2.038251,-0.94344 -2.71508,-1.64176 -0.05315,-0.0548 -0.103373,-0.11325 -0.151412,-0.17415 -0.876136,-1.1109 -0.870239,-3.07277 -0.436666,-3.46336 l 2.869592,-2.58485 c -1.42977,-1.58718 -2.795162,-3.23231 -4.09174,-4.92993 -0.720993,-0.94396 -1.42081,-1.90442 -2.09858,-2.87993 -0.744977,1.1525 0.377506,3.05378 0.892969,3.80028 l 0.0057,0.008 c 0.384819,0.55605 1.506157,2.78381 0.704349,3.44682 -0.819227,0.67742 -2.734506,0.30791 -4.417818,-0.6227 -0.950053,-0.52521 -1.801491,-1.21447 -2.31252,-1.93322 -0.867235,-1.21974 -0.678506,-3.05325 -0.02842,-3.48299 l 4.12998,-2.73006 c -0.392069,-0.5931 -0.775933,-1.19129 -1.151867,-1.79473 -0.0046,-0.60639 -0.0017,-1.21024 0.0088,-1.81126 z m 134.944736,0.4868 c -0.31676,0.5314 -0.63979,1.05901 -0.96893,1.58285 l 6.32002,3.97133 c -0.25438,0.17432 -0.50938,0.34648 -0.76481,0.51728 -1.40737,-0.325 -4.07818,1.60933 -6.06474,4.19509 -0.008,0.0105 -0.0163,0.021 -0.0243,0.0315 -0.86214,0.31169 -1.72462,0.60559 -2.58641,0.88263 0.22964,-1.07271 0.3533,-1.64697 0.54674,-2.4908 0.1528,-0.6632 0.22185,-0.95066 0.37465,-1.61386 -0.47245,0.23584 -0.89578,0.54407 -1.27434,0.92656 -0.15074,0.1523 -0.29468,0.31637 -0.4315,0.49247 -0.98629,1.26958 -1.70586,1.71059 -2.09496,1.38907 -0.42348,0.51248 -0.85306,1.0192 -1.28933,1.52083 l 5.70147,4.95888 c -0.63452,0.23914 -1.26942,0.46932 -1.90428,0.69039 -0.8874,-0.8315 -1.77537,-1.66262 -2.66392,-2.49287 -0.88865,0.0223 -1.52071,0.23119 -1.911,0.64389 -0.23628,0.24985 -0.37272,0.46533 -0.43666,0.65474 -0.19963,0.59132 0.30931,0.91914 0.67024,1.11673 -0.25017,0.13277 -0.50051,0.26407 -0.75137,0.39377 -0.8541,-0.14224 -1.74704,0.2586 -2.7249,1.18029 -2.7571,2.59872 -1.13526,4.57031 0.89917,2.5337 -1.41982,0.46791 -1.37136,-0.86378 -0.185,-1.98593 1.77917,-1.68288 3.89827,-0.43835 1.06195,2.1978 -1.96442,1.82578 -4.0425,2.11708 -4.90926,1.07952 -0.70267,-0.84113 -0.0186,-2.70758 1.55391,-4.15582 0.8357,-0.76965 1.73935,-1.15459 2.74608,-1.15703 -0.17019,-0.8701 -0.0778,-1.3648 0.59686,-2.06293 0.0244,-0.0252 0.0489,-0.0498 0.0734,-0.0739 1.11185,-1.09217 2.36544,-1.01357 2.85512,-0.97462 -0.15198,-0.0604 -0.31902,-0.17989 -0.5116,-0.34778 -0.39669,-0.3459 -0.79315,-0.69201 -1.18959,-1.03818 -0.55922,0.61812 -1.1284,1.22769 -1.70687,1.82779 -2.09923,2.17771 -4.3237,4.23482 -6.65851,6.15777 -0.28608,0.23563 -0.57362,0.46914 -0.863,0.70073 -0.3749,0.30004 -0.71597,0.44989 -1.01751,0.45165 1.64624,2.1306 3.29139,4.26166 4.93614,6.39341 -0.63009,0.0822 -1.25852,0.15666 -1.88516,0.22324 l -2.84479,-3.80545 c -0.43285,-0.57897 -1.76903,-1.23605 -2.99878,-0.38964 -1.19773,0.82441 -1.41198,1.66271 -0.95085,2.35438 0.64944,0.97411 3.33469,2.08104 3.20963,3.78943 -0.0495,0.6767 -0.39347,1.3276 -0.85215,1.90169 -0.80174,1.00342 -1.91572,1.7296 -2.38538,2.01022 -0.32093,0.037 -0.64158,0.0718 -0.9617,0.1049 3.29384,-1.9229 2.58946,-3.07857 2.18591,-3.44217 -0.74236,-0.66886 -2.08798,-2.02166 -2.46548,-2.46445 -0.3881,-0.45521 -0.59638,-1.06208 -0.11679,-1.99522 0.19451,-0.37849 0.49958,-0.8075 0.94878,-1.30897 -0.41669,0.28099 -0.83635,0.55798 -1.25832,0.83096 -2.53924,1.64258 -5.17308,3.13948 -7.88376,4.48035 -0.54647,0.27031 -1.09588,0.53408 -1.64848,0.79168 l 1.39217,2.98638 c 0.1,-0.28689 0.51798,-1.00299 1.17357,-1.92443 0.56027,-0.78745 1.30328,-1.73801 2.16473,-2.67787 0.96688,-0.21216 2.02638,-0.34859 3.19257,-0.42272 -1.79671,2.85483 -0.61754,4.72023 1.19475,6.00067 -0.44721,0.0522 -0.89372,0.10063 -1.33945,0.14521 -1.46303,-0.86747 -3.02108,-1.89376 -2.62775,-3.75481 -0.72064,0.89987 -1.2789,1.75156 -1.66398,2.57142 -0.33573,0.7148 -0.53881,1.40379 -0.60099,2.07068 -1.1066,0.16219 -2.02828,0.10771 -2.75487,-0.14211 l -1.79628,-4.0995 c -1.13324,0.49665 -2.27861,0.96685 -3.4339,1.40974 l 2.67219,6.9696 c -0.29498,-0.007 -0.58924,-0.0159 -0.88315,-0.0264 -0.34479,-0.26028 -0.80379,-0.48429 -1.3441,-0.65939 -1.56024,-0.50566 -3.81627,-0.61336 -6.10506,0.0331 -0.83249,-0.26389 -1.65553,-0.5406 -2.46858,-0.8294 3.25477,-2.33865 5.21973,-3.80869 6.61097,-4.38578 l -0.17053,-0.47646 c -2.81712,1.00693 -5.69156,1.85368 -8.60465,2.53473 -0.4044,0.0946 -0.80958,0.18624 -1.21543,0.2744 l 1.65933,7.63881 c -0.69072,-0.21593 -1.37541,-0.44044 -2.05362,-0.67282 l -1.28778,-6.61976 c -0.96972,0.18874 -1.94307,0.35936 -2.9192,0.5116 -0.36485,0.0569 -0.61884,0.0474 -0.75964,-0.0248 l 1.3038,8.91728 c -0.34511,-0.089 -0.6889,-0.17979 -1.03147,-0.27285 -0.23615,-0.37605 -0.91143,-0.68316 -1.78697,-0.90434 -1.18019,-0.29808 -2.77562,-0.45182 -4.16408,-0.35863 -0.75022,-0.42074 -1.48941,-0.85136 -2.21692,-1.2914 0.15234,-0.0873 2.58475,-1.06336 5.94485,-2.13113 0.18894,-0.06 0.38095,-0.12036 0.57568,-0.18087 l -0.21239,-1.73013 c -0.22117,-0.12839 -0.42901,-0.24451 -0.62425,-0.34881 -0.85647,-0.45752 -1.46613,-0.67838 -1.85415,-0.64234 -0.4622,0.0429 -0.90678,0.26952 -1.34462,0.68161 1.58904,0.4338 2.43096,0.86905 2.48408,1.37718 0.0577,0.55231 -0.49647,1.22349 -2.22105,1.35444 -1.21357,0.0446 -1.80592,-0.24902 -2.22725,-0.99632 -0.28589,0.78116 -1.08997,1.2039 -2.1761,1.22835 -0.75538,0.017 -1.42795,-0.11525 -1.85673,-0.37983 -0.30765,-0.18986 -0.48818,-0.44677 -0.48628,-0.76532 0.001,-0.23342 0.16486,-0.47134 0.48628,-0.71572 0.44047,-0.33494 1.1682,-0.67793 2.18333,-1.0604 -0.28118,-0.52772 -1.00702,-0.78365 -2.18333,-0.81081 -0.0634,-0.001 -0.12829,-0.002 -0.19431,-0.003 -1.01558,-0.003 -2.03104,-0.0244 -3.04581,-0.0661 l -0.30592,7.45795 c -0.26798,-0.12351 -0.53525,-0.24816 -0.80098,-0.37414 -0.70377,-1.23782 -2.70392,-2.61651 -5.19865,-3.2551 -0.44671,-0.11432 -0.91223,-0.20589 -1.39372,-0.26975 -0.65996,-0.57198 -1.30616,-1.15177 -1.93838,-1.73891 1.42674,-0.31294 2.56436,-0.5707 3.65611,-0.80099 1.87843,-0.39612 3.22309,-0.62169 4.15117,-0.60875 l 0.0326,-0.50487 c -1.3406,-0.0857 -2.67927,-0.20567 -4.01371,-0.35967 -2.05006,-0.23646 -4.09107,-0.55304 -6.11642,-0.9493 l -1.50068,7.67085 c -0.54875,-0.47173 -1.08874,-0.94851 -1.61954,-1.4304 l 1.43867,-6.58875 c -0.37883,-0.0827 -0.75726,-0.16803 -1.13481,-0.25631 -0.31469,-0.0736 -0.62882,-0.14942 -0.94258,-0.22686 -0.42611,-0.43145 -0.84471,-0.86619 -1.25626,-1.30432 0.80191,0.21471 1.60705,0.41666 2.41536,0.60565 0.43524,0.10177 0.87151,0.19977 1.30845,0.29404 -0.4052,-0.36311 -0.86825,-0.73755 -1.1126,-1.13171 -0.12615,-0.20351 -0.19207,-0.40959 -0.15916,-0.61805 0.0523,-0.22001 0.20795,-0.41888 0.44235,-0.59273 0.94069,-0.69767 3.2057,-1.01998 5.31389,-0.67541 1.13791,0.18598 2.30956,0.52357 3.41581,0.93689 1.87093,0.69917 3.65001,1.65081 4.73408,2.5461 l -0.0258,0.52038 c -1.60252,-1.04297 -3.18055,-1.80261 -4.79816,-2.28771 -0.72061,-0.21606 -1.44855,-0.37743 -2.18953,-0.48525 -2.34221,-0.34078 -4.79176,0.35904 -4.98729,1.29553 -0.0563,0.26958 0.14138,0.52121 0.59893,0.74776 2.0803,0.41382 4.1774,0.74245 6.28437,0.98547 2.79546,0.32261 5.60877,0.49426 8.42274,0.51315 0.18324,0.001 0.35609,0.005 0.51987,0.0119 1.79739,0.0768 2.46626,0.52124 3.14709,1.33739 1.15208,-0.96666 2.10332,-1.48983 2.92437,-1.55391 1.26493,-0.0987 2.28659,0.35601 3.00189,0.82475 0.55709,0.3651 0.92124,0.73538 1.04644,0.85473 -0.35028,-0.53074 -0.47219,-0.84906 -0.52296,-1.26297 l -0.28526,-2.32751 c 0.33048,0.12421 0.66235,0.246 0.99633,0.36587 0.14734,0.68872 0.57236,0.9917 1.27485,0.88625 1.17452,-0.17629 2.34461,-0.37905 3.50987,-0.60875 -0.78321,-0.26263 -1.7063,-0.50187 -1.86036,-1.1038 -0.16828,-0.95969 1.58275,-2.32841 3.68608,-3.10369 0.35505,-0.13085 0.72317,-0.24585 1.09761,-0.33951 2.49481,-0.62406 5.58646,-0.64502 7.72666,-0.28319 0.41097,0.0695 0.79336,0.15392 1.13637,0.25373 l 0.1819,0.48834 c -0.37532,-0.0643 -0.74522,-0.11892 -1.11053,-0.1633 -2.28703,-0.27785 -4.37992,-0.16016 -6.40374,0.38396 -0.85384,0.22956 -1.65349,0.59409 -2.31356,1.00614 -1.12648,0.70325 -1.87451,1.56182 -1.75286,2.15801 0.0551,0.26983 0.33558,0.42272 0.84543,0.44958 0.48155,-0.10301 0.96227,-0.21034 1.44177,-0.32246 2.90908,-0.68009 5.77972,-1.52782 8.59172,-2.53679 2.81214,-1.00913 5.56644,-2.17998 8.24446,-3.5047 2.67804,-1.3247 5.27999,-2.80329 7.78867,-4.42609 0.685,-0.44313 1.36318,-0.89725 2.03399,-1.36167 1.5984,-1.10663 2.86882,-0.68697 3.88865,-0.39481 -0.55732,-0.33343 -0.97003,-0.69644 -1.25729,-1.06763 -0.38148,-0.49308 -0.76247,-0.98616 -1.1436,-1.4795 0.3077,-0.0519 0.61563,-0.10607 0.92398,-0.16226 0.51265,0.52072 0.94367,0.64794 1.28932,0.37724 0.50373,-0.39452 1.0027,-0.79523 1.49655,-1.202 2.30672,-1.89981 4.50444,-3.93236 6.57841,-6.08387 2.07418,-2.15169 4.02477,-4.42293 5.83892,-6.79803 1.50416,-1.96931 2.91469,-4.01048 4.22507,-6.11384 0.539,-0.26611 1.07751,-0.53969 1.61437,-0.82165 z m -1.97507,3.14244 c -0.87629,1.32456 -1.79222,2.62289 -2.74661,3.89227 1.64775,-0.76693 2.88576,-1.32771 3.82147,-1.6459 -0.27199,1.25694 -0.4784,2.2089 -0.64543,3.30936 0.49492,-0.66796 2.02271,-1.76565 4.03334,-2.60346 z m -131.518075,1.98903 -3.902088,2.71094 c -0.125818,0.0874 -0.126808,0.22065 -0.0015,0.39946 0.69793,0.99632 2.384558,1.5814 3.472139,1.7508 0.481996,0.0751 0.839874,0.0696 0.93276,-0.009 0.117941,-0.0995 0.07637,-0.341 -0.03307,-0.67799 -0.321134,-0.98873 -1.185427,-2.75192 -0.468188,-4.17442 z m 135.663555,3.32692 c 0.12665,-0.01 0.24039,0.0149 0.33331,0.0796 0.37164,0.25874 0.25874,1.06596 -0.26717,1.79214 -0.52593,0.72629 -1.25775,1.08531 -1.61954,0.81287 -0.36171,-0.27253 -0.22463,-1.06261 0.29146,-1.77509 0.387,-0.5343 0.88199,-0.87936 1.26194,-0.90951 z M 92.246049,251.86215 c 0.190197,-0.002 0.387874,0.0171 0.589628,0.0537 0.803025,0.14601 1.687797,0.58112 2.488737,1.19579 1.606542,1.23292 2.78969,3.15866 3.19102,5.22604 -0.0538,-0.76096 0.303154,-1.342 0.652156,-1.88567 l 1.03973,-1.55391 c 0.16464,0.30069 0.33199,0.60099 0.50178,0.90072 -0.13409,0.27827 -0.18549,0.52984 -0.15296,0.75499 0.0412,0.28538 0.21752,0.52827 0.52813,0.7245 0.15418,0.0974 0.30868,0.1941 0.46354,0.29042 1.65079,1.02681 1.77056,2.35922 1.90789,3.41117 0.0844,-0.64395 0.25315,-1.16706 0.47956,-1.5782 0.30087,-0.54601 0.60205,-1.09184 0.9033,-1.63763 0.16987,0.26166 0.34219,0.52286 0.51625,0.78342 -0.27401,0.67741 -0.21942,1.12369 0.1664,1.33325 0.87353,0.47447 1.75591,0.93232 2.64686,1.37304 2.67803,1.32474 5.43233,2.49555 8.24446,3.5047 0.22752,0.0816 0.45541,0.16232 0.68368,0.24184 0.3782,0.4672 0.76433,0.9321 1.15755,1.39372 -0.58809,-0.19201 -1.17411,-0.3911 -1.75751,-0.59687 l -2.48305,7.03937 c -0.12139,-0.12679 -0.24196,-0.25408 -0.36226,-0.38138 -0.0815,-0.0863 -0.1629,-0.1724 -0.24391,-0.25889 -0.23139,-1.48838 -1.12727,-2.67567 -2.67219,-3.63648 -2.17856,0.75206 -5.37877,-1.41813 -4.71651,-2.76055 0.56426,-1.14374 2.9371,-0.40852 3.99924,0.59014 0.46705,-0.0383 0.71205,-0.47316 0.0698,-1.29191 -0.6974,-0.88899 -1.8754,-1.54151 -2.73575,-2.19263 -0.6475,-0.49002 -1.12762,-0.98508 -1.12707,-1.57303 -0.14179,-0.074 -0.28344,-0.14838 -0.42478,-0.22324 -0.42434,-0.22474 -0.69707,-0.47797 -0.81855,-0.75396 -1.3006,2.35754 -2.60243,4.71478 -3.90467,7.0714 -0.32587,-0.5455 -0.64375,-1.0927 -0.95395,-1.64124 l 2.3611,-4.12326 c 0.37418,-0.65352 0.38423,-2.16691 -0.99012,-3.00912 -0.1732,-0.10613 -0.34595,-0.21293 -0.51832,-0.32039 -0.28204,-0.17584 -0.46815,-0.34863 -0.55862,-0.51522 l -4.420402,6.94273 c -0.126429,-0.19124 -0.252237,-0.38285 -0.376722,-0.57464 -0.0934,-0.14391 -0.18623,-0.28782 -0.278535,-0.43202 -0.77951,-2.32214 -2.228533,-2.6875 -4.748548,-4.57388 -0.942473,-0.72433 -1.57447,-1.50385 -1.911511,-2.21847 -0.661577,-1.40271 -0.191901,-2.51739 1.176672,-2.7373 0.10744,0.23054 0.216522,0.46123 0.326595,0.69143 -0.122535,0.0309 -0.888966,0.25557 -0.700215,1.07074 0.0323,0.13949 0.09236,0.29686 0.189135,0.47284 1.030826,1.75335 5.177171,3.58519 5.874577,5.83323 0.04396,-0.29756 0.176004,-0.69333 0.295073,-0.87126 l 1.603003,-2.3952 c 0.739025,-1.10435 -0.185199,-2.66428 -1.344104,-3.78013 -1.162369,-1.11921 -2.632796,-1.86125 -3.171383,-1.18288 0.409685,0.18369 1.78861,1.06259 2.172477,2.14922 0.435248,1.23213 -0.694128,2.2555 -3.002401,1.72806 -0.588429,-0.76177 -1.1609,-1.53062 -1.717207,-2.30631 1.934915,0.68105 3.432934,0.75775 3.653007,0.46508 0.116819,-0.15535 0.06099,-0.31756 -0.164331,-0.48886 -0.576473,-0.43824 -2.304686,-0.7288 -2.89078,-1.20974 -0.03878,-0.0318 -0.07562,-0.0649 -0.110071,-0.0987 -0.24084,-0.23607 -0.37525,-0.51891 -0.403593,-0.84646 -0.01788,-0.36222 0.09739,-0.68695 0.342098,-0.97514 0.3608,-0.4249 0.866015,-0.612 1.436605,-0.61701 z m 17.325561,11.11715 c 0.38234,1.23137 3.45523,3.64638 2.07274,4.97644 0.58409,0.66078 0.94889,1.33179 1.29294,1.99109 l 1.81643,-4.7873 c -1.75247,-0.66487 -3.48133,-1.39246 -5.18211,-2.18023 z m 60.46969,4.6116 c -0.79548,0.38939 -1.25471,0.75681 -3.59565,2.44016 1.72506,-0.33383 2.68199,-0.10828 4.70463,0.66301 z m -32.43678,4.56251 c -0.88203,0.0424 -1.44988,0.1978 -4.25297,0.81391 l -0.015,0.003 0.0145,0.003 c 1.70652,0.37674 2.49587,0.9638 4.04317,2.46858 z m 15.36599,2.31097 c -0.19918,0.0677 -0.39359,0.134 -0.58343,0.19947 -1.13466,0.39146 -2.09251,0.74302 -2.87941,1.08004 1.10159,0.0824 2.12571,0.3275 3.08973,0.74001 0.22311,0.0955 0.44267,0.20027 0.6594,0.31367 z" /></g></g><metadata
     id="metadata5"><rdf:RDF><cc:Work
         rdf:about=""><dc:title>University of Chittagong (CU) - চট্টগ্রাম বিশ্ববিদ্যালয় (চবি)</dc:title></cc:Work></rdf:RDF></metadata></svg>
